<svg width="410" height="578" viewBox="0 0 410 578" fill="none" xmlns="http://www.w3.org/2000/svg">
<path d="M169 447.5C201.5 514.5 165.794 578 131 578C96.2061 578 68 519.573 68 447.5C68 375.427 96.2061 317 131 317C165.794 317 194.5 380.5 169 447.5Z" fill="#3967DF"/>
<path d="M144 435C144 509.558 151.122 578 115.5 578C79.8776 578 51 517.558 51 443C51 368.442 79.8776 308 115.5 308C151.122 308 144 360.442 144 435Z" fill="#2E82CF"/>
<path d="M330 193C330 273.634 256.5 248 165.5 339C74.6492 339 1 273.634 1 193C1 112.366 74.6492 47 165.5 47C228 109.5 330 112.366 330 193Z" fill="#9159D9"/>
<path d="M26 193C26 273.634 180 323.5 164.5 339C73.6492 339 0 273.634 0 193C0 112.366 73.6492 47 164.5 47C177.5 60 26 112.366 26 193Z" fill="#B57BFF"/>
<path d="M329.5 192C326 269.5 292.563 248 247 248C201.436 248 164.5 225.413 164.5 192C164.5 158.587 201.436 139 247 139C292.563 139 326 120.5 329.5 192Z" fill="#FF5E00"/>
<path d="M299 193.5C291.585 198.797 268.779 210 231.5 210C194.221 210 164 223 164 193.5C164 165.5 199.794 213.108 231.5 193.5C269.5 170 334 168.5 299 193.5Z" fill="#FCFF7B"/>
<path d="M199 95.7743C199 108.753 177.957 149.774 152 149.774C126.043 149.774 105 108.753 105 95.7743C105 82.7956 126.043 145.274 152 145.274C177.957 145.274 199 82.7956 199 95.7743Z" fill="black"/>
<path d="M294.5 152.407C294.5 160.968 290.023 167.907 284.5 167.907C278.977 167.907 274.5 160.968 274.5 152.407C255 134.407 264.888 136.907 284.5 136.907C302.5 136.907 311.5 136.907 294.5 152.407Z" fill="#E9AE55"/>
<path d="M276 240.5C276 250.165 276 251 265.5 249C259.701 249 255 250.165 255 240.5C255 230.835 259.701 223 265.5 223C271.299 223 276 230.835 276 240.5Z" fill="#E9AE55"/>
<path d="M297 241.5C297 251.165 297 252 286.5 250C280.701 250 276 251.165 276 241.5C276 231.835 280.701 217 286.5 217C292.299 217 297 231.835 297 241.5Z" fill="#E9AE55"/>
<path d="M177 42.5C177 65.9721 137.601 85 89 85C40.3989 85 34 147.5 34 42.5C34 19.0279 40.3989 0 89 0C137.601 0 177 19.0279 177 42.5Z" fill="black"/>
<rect x="134" y="6" width="1" height="22" fill="#C4C4C4"/>
<rect x="130" y="5" width="1" height="23" fill="#C4C4C4"/>
<rect x="126" y="4" width="1" height="24" fill="#C4C4C4"/>
<rect x="122" y="3" width="1" height="25" fill="#C4C4C4"/>
<path d="M298.5 179.5H308.5L309 180.5H298.5V179.5Z" fill="#C4C4C4"/>
<rect x="338.351" y="152.093" width="53.5419" height="3" rx="1.5" transform="rotate(-22 338.351 152.093)" fill="#B57BFF"/>
<rect x="340.851" y="170.287" width="53.5419" height="3" rx="1.5" transform="rotate(-11.5 340.851 170.287)" fill="#B57BFF"/>
<rect x="344.615" y="190.96" width="53.5419" height="3" rx="1.5" transform="rotate(-6.5 344.615 190.96)" fill="#B57BFF"/>
<path d="M335.641 141.098C336.749 144.72 333.886 146.565 329.613 147.871C327.027 145.525 325.637 145.053 322.253 145.192C326.526 143.885 327.005 142.395 326.982 139.264C331.916 139.1 334.534 137.477 335.641 141.098Z" fill="#2E82CF"/>
<path d="M359.561 178.207C360.283 181.924 357.244 183.46 352.858 184.312C350.531 181.709 349.198 181.094 345.818 180.878C350.204 180.026 350.836 178.593 351.14 175.478C356.064 175.83 358.838 174.489 359.561 178.207Z" fill="#2E82CF"/>
<path d="M408.14 140.932C409.559 144.443 406.868 146.531 402.725 148.204C399.944 146.092 398.519 145.744 395.16 146.177C399.302 144.503 399.649 142.976 399.354 139.86C404.254 139.266 406.721 137.421 408.14 140.932Z" fill="#2E82CF"/>
</svg>
