<svg width="348" height="290" viewBox="0 0 348 290" fill="none" xmlns="http://www.w3.org/2000/svg">
<path d="M237.5 139C230.596 139 225 126.464 225 111C225 95.536 230.596 83 237.5 83C244.404 83 231 130 250 111C250 126.464 244.404 139 237.5 139Z" fill="#C4C4C4"/>
<path d="M101.5 139C108.404 139 114 126.464 114 111C114 95.536 108.404 83 101.5 83C94.5964 83 108 130 89 111C89 126.464 94.5964 139 101.5 139Z" fill="#C4C4C4"/>
<ellipse cx="168.5" cy="198.5" rx="168.5" ry="87.5" fill="#2E82CF"/>
<ellipse cx="170.5" cy="202.5" rx="168.5" ry="87.5" fill="#2E82CF"/>
<path d="M309.5 223.522C309.5 248.098 217.139 268.022 165.5 268.022C113.861 268.022 29.5 248.098 29.5 223.522C29.5 198.945 113.861 179.022 165.5 179.022C217.139 179.022 309.5 198.945 309.5 223.522Z" fill="#9159D9"/>
<path d="M217.286 196.5C217.286 208.65 208.847 216 200.286 216C191.726 216 184.786 206.15 184.786 194C184.786 181.85 158.099 176.5 200.286 181.5C220.644 183.913 217.286 181.5 217.286 196.5Z" fill="#E9AE55"/>
<path d="M208 111C290.5 193.5 169 144.677 169 169C169 146.081 46.5 194.5 130 111C150.159 90.8411 147.461 53 169 53C190.539 53 184.506 87.6129 208 111Z" fill="#2E82CF"/>
<rect x="134" y="114" width="70" height="4" rx="2" fill="black"/>
<path d="M206 126.5C206 136.441 197.941 144.5 188 144.5C178.059 144.5 170 136.441 170 126.5C170 116.559 178.059 118 188 118C197.941 118 206 116.559 206 126.5Z" fill="#FFFEFE"/>
<path d="M170 126.573C170 136.514 161.941 144.573 152 144.573C142.059 144.573 134 136.514 134 126.573C134 116.632 142.059 118.073 152 118.073C161.941 118.073 170 116.632 170 126.573Z" fill="#FFFEFE"/>
<path d="M162 121.008C162 124.322 157.523 127.008 152 127.008C146.477 127.008 142 124.322 142 121.008C142 117.694 146.477 118.008 152 118.008C157.523 118.008 162 117.694 162 121.008Z" fill="#9159D9"/>
<path d="M198 121.008C198 124.322 193.523 127.008 188 127.008C182.477 127.008 178 124.322 178 121.008C178 117.694 182.477 118.008 188 118.008C193.523 118.008 198 117.694 198 121.008Z" fill="#9159D9"/>
<path d="M152.5 194C152.5 206.15 144.522 216 135.961 216C127.401 216 120.461 206.15 120.461 194C120.461 181.85 116.539 183.5 137 180.5C157.283 177.526 152.5 181.85 152.5 194Z" fill="#E9AE55"/>
<path d="M185.5 194C185.5 206.15 176.59 216 168.029 216C159.469 216 152.529 206.15 152.529 194C152.529 181.85 124.971 179 168.5 179C189 179 185.5 181.85 185.5 194Z" fill="#E9AE55"/>
<path d="M229 255.5C233.5 265 201.913 267.5 168.5 267.5C135.087 267.5 102.5 265.5 108 255.5C108 241.417 135.087 230 168.5 230C201.913 230 229 241.417 229 255.5Z" fill="#FF94EE"/>
<path d="M188 79.5C209.5 109 188 106 181.5 106C173.216 106 174 94.1355 174 79.5C174 64.8644 160.716 53 169 53C178 51.5 188 64.8644 188 79.5Z" fill="#3967DF"/>
<path d="M193.5 92C193.5 96.9706 186.642 91 182.5 91C178.358 91 175 86.9706 175 82C175 77.0294 177.358 66.5 181.5 66.5C181.5 52 193.5 87.0294 193.5 92Z" fill="#3967DF"/>
<rect x="215.143" y="0.129364" width="7" height="42" rx="3" transform="rotate(30.5 215.143 0.129364)" fill="#2E82CF"/>
<rect x="239.651" y="5.62903" width="7" height="42" rx="3" transform="rotate(40.5 239.651 5.62903)" fill="#2E82CF"/>
<path d="M347.203 79C347.203 108.823 350.533 133 318.5 133C364.5 79 274 91.3234 274 61.5C274 31.6766 286.467 25 318.5 25C350.533 25 347.203 49.1766 347.203 79Z" fill="#9159D9"/>
<path d="M337 53.5C337 65.3741 339.755 72.5 326.5 72.5C313.245 72.5 282.5 72.3741 282.5 60.5C282.5 48.6259 298.245 30 311.5 30C324.755 30 337 41.6259 337 53.5Z" fill="#E9AE55"/>
</svg>
