<svg width="167" height="172" viewBox="0 0 167 172" fill="none" xmlns="http://www.w3.org/2000/svg">
<g filter="url(#filter0_d)">
<ellipse cx="83.5" cy="82" rx="79.5" ry="82" fill="#FB284E"/>
<g filter="url(#filter1_d)">
<path d="M85.2942 36.1094C85.2942 34.6539 86.7961 33.7149 87.964 34.5833C94.0089 39.0776 96.6736 47.809 101.132 54.1604C106.197 61.3764 109.243 69.8143 109.955 78.6018C110.667 87.3892 109.019 96.2074 105.181 104.145C101.867 111.001 96.4004 119.74 90.2489 125.151C89.0487 126.207 87.2942 125.298 87.2942 123.699L87.2942 104.437C87.2942 103.769 87.6239 103.137 88.1968 102.794C92.3875 100.284 90.5405 103.781 93.1717 98.3384C95.975 92.5401 97.1788 86.0983 96.6587 79.679C96.1386 73.2596 93.9135 67.0956 90.2134 61.8242C86.7984 56.9591 90.4888 58.3882 86.4707 56.5378C85.7589 56.21 85.2942 55.4971 85.2942 54.7136L85.2942 36.1094Z" fill="white"/>
</g>
<g filter="url(#filter2_d)">
<rect x="67" y="33" width="13" height="27" rx="2" fill="white"/>
</g>
<g filter="url(#filter3_d)">
<rect x="67.2942" y="100" width="13" height="27" rx="2" fill="white"/>
</g>
</g>
<defs>
<filter id="filter0_d" x="0" y="0" width="167" height="172" filterUnits="userSpaceOnUse" color-interpolation-filters="sRGB">
<feFlood flood-opacity="0" result="BackgroundImageFix"/>
<feColorMatrix in="SourceAlpha" type="matrix" values="0 0 0 0 0 0 0 0 0 0 0 0 0 0 0 0 0 0 127 0"/>
<feOffset dy="4"/>
<feGaussianBlur stdDeviation="2"/>
<feColorMatrix type="matrix" values="0 0 0 0 0 0 0 0 0 0 0 0 0 0 0 0 0 0 0.25 0"/>
<feBlend mode="normal" in2="BackgroundImageFix" result="effect1_dropShadow"/>
<feBlend mode="normal" in="SourceGraphic" in2="effect1_dropShadow" result="shape"/>
</filter>
<filter id="filter1_d" x="47.9469" y="33.7259" width="84.5514" height="102.404" filterUnits="userSpaceOnUse" color-interpolation-filters="sRGB">
<feFlood flood-opacity="0" result="BackgroundImageFix"/>
<feColorMatrix in="SourceAlpha" type="matrix" values="0 0 0 0 0 0 0 0 0 0 0 0 0 0 0 0 0 0 127 0"/>
<feOffset dy="4"/>
<feGaussianBlur stdDeviation="2"/>
<feColorMatrix type="matrix" values="0 0 0 0 0 0 0 0 0 0 0 0 0 0 0 0 0 0 0.25 0"/>
<feBlend mode="normal" in2="BackgroundImageFix" result="effect1_dropShadow"/>
<feBlend mode="normal" in="SourceGraphic" in2="effect1_dropShadow" result="shape"/>
</filter>
<filter id="filter2_d" x="63" y="33" width="21" height="35" filterUnits="userSpaceOnUse" color-interpolation-filters="sRGB">
<feFlood flood-opacity="0" result="BackgroundImageFix"/>
<feColorMatrix in="SourceAlpha" type="matrix" values="0 0 0 0 0 0 0 0 0 0 0 0 0 0 0 0 0 0 127 0"/>
<feOffset dy="4"/>
<feGaussianBlur stdDeviation="2"/>
<feColorMatrix type="matrix" values="0 0 0 0 0 0 0 0 0 0 0 0 0 0 0 0 0 0 0.25 0"/>
<feBlend mode="normal" in2="BackgroundImageFix" result="effect1_dropShadow"/>
<feBlend mode="normal" in="SourceGraphic" in2="effect1_dropShadow" result="shape"/>
</filter>
<filter id="filter3_d" x="63.2942" y="100" width="21" height="35" filterUnits="userSpaceOnUse" color-interpolation-filters="sRGB">
<feFlood flood-opacity="0" result="BackgroundImageFix"/>
<feColorMatrix in="SourceAlpha" type="matrix" values="0 0 0 0 0 0 0 0 0 0 0 0 0 0 0 0 0 0 127 0"/>
<feOffset dy="4"/>
<feGaussianBlur stdDeviation="2"/>
<feColorMatrix type="matrix" values="0 0 0 0 0 0 0 0 0 0 0 0 0 0 0 0 0 0 0.25 0"/>
<feBlend mode="normal" in2="BackgroundImageFix" result="effect1_dropShadow"/>
<feBlend mode="normal" in="SourceGraphic" in2="effect1_dropShadow" result="shape"/>
</filter>
</defs>
</svg>
