<svg width="928" height="384" viewBox="0 0 928 384" fill="none" xmlns="http://www.w3.org/2000/svg">
<path d="M924.8 375.162L317.41 373.905L317.625 349.227L925.024 349.495L924.8 375.162Z" fill="#100D0B"/>
<path d="M363.227 369.54L363.185 369.514L363.139 369.493C362.714 369.3 362.197 369.099 361.599 368.866C355.832 366.623 342.328 361.371 336.52 334.536C336.292 333.485 336.27 332.404 336.246 331.261C336.235 330.728 336.224 330.194 336.19 329.663L336.158 329.14L335.768 329.029C335.763 328.994 335.76 328.948 335.759 328.885C335.779 326.012 335.754 323.144 335.73 320.968C335.667 319.374 335.638 317.653 335.636 315.53C335.555 313.455 335.547 311.294 335.611 309.079C335.6 304.436 335.673 300.675 335.841 297.215C336.006 292.55 336.266 287.702 336.612 282.799C337.046 269.813 337.513 258.946 338.389 248.031C339.154 238.527 340.221 227.298 342.351 216.074C342.551 214.723 342.775 213.368 343.02 212.024C343.513 208.782 344.062 206.004 344.704 203.507C345.038 202 345.412 200.545 345.819 199.16L345.834 199.107L345.869 198.86C345.872 198.84 345.885 198.783 345.937 198.696L345.979 198.623L346.003 198.542C348.538 190.255 351.969 183.946 356.201 179.79C357.754 178.939 379.08 170.914 388.926 168.791C391.854 168.16 395.639 167.395 399.648 166.584C407.789 164.939 417.018 163.075 422.881 161.566C423.263 161.469 423.741 161.424 424.34 161.429C424.993 161.434 425.689 161.496 426.426 161.563C427.167 161.629 427.932 161.697 428.655 161.703C429.38 161.71 429.982 161.653 430.497 161.527C433.461 160.807 445.358 162.567 445.358 162.567C448.1 162.548 463.201 162.254 463.201 162.254C471.136 162.067 479.341 161.874 487.485 161.945C506.346 162.11 520.614 163.702 533.746 167.11C536.235 167.756 538.815 168.464 541.414 169.218C541.414 169.218 550.866 170.175 554.47 171.549C555.168 171.816 555.946 172.447 556.696 173.058C557.624 173.813 558.583 174.593 559.62 174.904C560.115 175.054 560.64 175.129 561.226 175.135C561.886 175.14 562.529 175.057 563.152 174.976C563.744 174.899 564.305 174.827 564.852 174.832C565.195 174.835 565.501 174.868 565.786 174.933C572.21 176.422 587.639 181.786 594.251 184.831C600.108 187.527 608.621 198.46 609.13 199.398L609.185 199.5L609.237 199.555C609.706 200.234 612.967 208.284 612.786 212.638C612.336 223.448 603.088 265.907 601.229 270.496C599.729 274.2 599.373 284.548 598.995 295.504C598.59 307.248 598.131 320.559 596.155 326.311L595.662 327.759C593.007 335.565 589.702 345.28 581.996 349.096C570.977 354.552 540.525 354.934 529.06 355.078C521.191 355.177 513.196 355.398 505.465 355.61C493.489 355.94 481.106 356.282 468.947 356.176L468.945 356.176C455.863 356.062 444.401 355.432 433.903 354.25L433.679 354.224L433.477 354.319C432.438 354.806 431.285 355.304 429.951 355.847L429.901 355.868L429.854 355.894C423.632 359.492 417.21 362.34 410.771 364.356L410.735 364.367L410.702 364.381C400.05 368.846 368.371 372.721 363.227 369.54Z" fill="#101829"/>
<path d="M493.654 249.478C493.175 246.932 492.198 244.844 490.747 243.27L490.568 243.076L490.304 243.032C488.937 242.8 487.579 242.547 485.935 242.236C484.778 242.057 483.589 241.891 482.383 241.737C481.927 241.689 481.468 241.634 480.989 241.565C478.311 241.259 475.916 241.091 473.667 241.052C473.638 241.051 473.617 241.049 473.605 241.049C473.6 241.049 473.596 241.05 473.596 241.05L472.959 240.526L472.475 241.208C470.846 243.502 469.232 246.025 467.239 249.389L467.18 249.487L467.155 249.599C466.739 251.417 466.15 253.797 465.281 256.09C465.272 256.111 465.238 256.189 465.124 256.312L464.821 256.639L464.968 257.052C465.485 258.505 466.011 259.956 466.545 261.403L466.625 261.623L466.821 261.759C473.456 266.361 479.321 273.162 482.913 280.417L483.049 280.691L483.345 280.796C483.819 280.963 484.211 281.116 484.57 281.276L485.192 281.583L485.585 281.112C488.219 277.96 490.629 275.04 492.955 272.185L493.357 271.692L492.989 271.297C492.991 271.277 492.995 271.253 493.002 271.222C493.354 269.57 493.626 268.232 493.857 267.01L493.869 266.947L494.001 251.795L493.995 251.749C493.892 250.896 493.78 250.154 493.654 249.478" fill="#DF1936"/>
<path d="M497.198 229.193L497.104 228.095L496.299 228.199C496.258 228.204 496.216 228.207 496.174 228.206C495.927 228.204 495.685 228.106 495.583 227.969L495.363 227.669L494.984 227.656C494.8 227.649 494.631 227.583 494.541 227.485C494.497 227.438 494.441 227.354 494.455 227.176C494.858 222.143 491.918 218.274 486.782 217.078C486.682 217.054 486.603 217.019 486.54 216.97L486.369 216.837L486.151 216.811C485.609 216.744 485.054 216.701 484.504 216.684C484.469 216.683 484.447 216.679 484.44 216.679L484.159 216.488L483.821 216.566C481.036 217.196 478.754 218.567 477.038 220.641C474.917 223.203 473.454 226.11 472.303 228.615L472.264 228.701L472.248 228.793C472.147 229.358 472.089 229.873 472.068 230.37C471.953 233.306 472.182 236.289 474.626 238.22L474.681 238.264L474.743 238.297C475.579 238.741 476.548 239.145 477.622 239.497L477.796 239.553L477.979 239.529C479.443 239.325 480.855 239.227 482.176 239.239C485.169 239.265 487.668 239.84 489.608 240.946L489.842 241.082L490.111 241.043C491.66 240.824 492.962 240.358 493.982 239.655L494.121 239.559L494.205 239.416C494.347 239.175 494.612 238.936 494.851 238.839L495.022 238.768L495.141 238.631C495.427 238.302 495.678 237.937 495.888 237.548C496.357 236.679 496.699 235.721 496.938 234.592C497.013 234.163 497.083 233.735 497.151 233.282C497.294 232.055 497.309 230.717 497.198 229.193" fill="#DF1936"/>
<path d="M513.354 242.563C513.165 242.561 512.926 242.499 512.864 242.207C512.701 241.453 512.583 240.659 512.489 239.708L512.321 237.999L511.144 239.283C510.23 240.278 509.272 241.191 508.295 241.995C508.183 242.087 508.042 242.134 507.944 242.133L507.573 241.551L507.436 241.315L507.158 241.234L506.815 241.103L506.495 241.278C506.421 241.318 506.363 241.34 506.327 241.35C505.169 240.205 504.156 239.118 503.233 238.024L503.164 237.942L503.073 237.882C502.382 237.419 501.812 237.027 501.28 236.647L500.64 236.188L500.123 236.909C500.052 237.007 499.982 237.105 499.898 237.226C499.558 237.752 499.245 238.289 498.964 238.821L498.919 238.907L498.873 239.121C498.86 239.184 498.81 239.264 498.736 239.343L498.66 239.425L498.611 239.526C497.672 241.476 496.967 243.675 496.523 246.064L496.498 246.19L496.52 246.317C497.082 249.626 497.404 253.043 497.477 256.472L497.489 257.056L498.079 257.185C499.354 257.462 500.505 257.692 501.688 257.702C501.911 257.704 502.136 257.698 502.364 257.684L502.591 257.67L502.774 257.539C504.325 256.422 505.874 255.144 507.508 253.629L507.558 253.582L507.599 253.528C510.096 250.199 512.584 246.783 514.993 243.374L513.846 242.393C513.719 242.501 513.535 242.564 513.354 242.563" fill="#FAFBCB"/>
<path d="M467.633 236.742C467.372 235.391 467.126 234.116 466.987 232.839L466.926 232.276L466.348 232.181C466.222 232.161 466.095 232.151 465.966 232.149C464.688 232.138 463.486 233.064 462.884 233.616C461.711 234.691 460.816 236.01 460.222 237.539L460.188 237.626L460.177 237.718C460.132 238.114 460.103 238.477 460.092 238.831C460.046 240.208 460.116 241.584 460.189 242.747L460.195 242.836L460.222 242.92C460.447 243.63 460.673 244.34 460.901 245.049L461.101 245.665L461.762 245.562C464.905 245.072 466.995 242.833 467.972 238.912L468.009 238.763L467.982 238.613C467.872 237.984 467.753 237.362 467.633 236.742" fill="#FAFBCB"/>
<path d="M542.839 183.49C542.67 183.195 542.375 183.018 542.048 183.015C541.91 183.014 541.775 183.044 541.648 183.101L541.495 183.172L541.386 183.296C533.736 192.131 523.031 198.907 518.782 201.412C513.258 204.667 498.675 210.997 495.836 211.371L493.799 211.64L495.517 212.732C495.789 212.905 496.069 213.122 496.373 213.398L496.4 213.422L496.527 213.518L496.565 213.542C496.613 213.571 496.668 213.619 496.722 213.677L496.756 213.714L496.794 213.746C498.804 215.437 501.367 222.09 502.461 224.931C502.995 226.318 503.111 226.605 503.239 226.784C503.819 227.59 504.349 229.135 504.635 230.282L503.641 229.464L504.764 232.425C505.491 234.342 506.314 236.513 507.584 238.317L508.164 239.141L508.818 238.37C509.542 237.516 517.065 227.39 522.065 219.814C523.15 218.379 524.331 216.882 525.575 215.366L525.599 215.337L525.621 215.305C527.734 212.117 529.948 208.91 532.088 205.807C533.557 203.681 535.023 201.557 536.481 199.406C542.089 190.56 543.575 184.773 542.839 183.49" fill="#FAFBCB"/>
<path d="M467.396 199.467L467.34 199.409L467.272 199.364C465.211 197.984 463.4 196.603 461.728 195.134C461.63 195.05 461.308 194.766 461.308 194.766L461.278 194.744C455.805 190.787 451.894 186.117 449.654 180.863C449.174 179.735 448.771 178.631 448.455 177.587L446.943 177.779C446.894 179.95 446.941 182.204 447.081 184.475L447.086 184.558L447.111 184.64C448.76 190.091 449.231 195.952 449.686 201.618C449.751 202.417 449.814 203.214 449.883 204.01L449.886 204.056L449.895 204.1C450.186 205.464 450.483 206.828 450.796 208.227C450.938 208.734 451.083 209.238 451.231 209.742L451.254 209.808C452.045 211.778 452.733 213.834 453.398 215.824C454.049 217.771 454.723 219.786 455.495 221.727L455.517 221.777C456.485 223.758 457.573 225.751 458.752 227.702L458.84 227.848L458.984 227.941C459.383 228.203 459.806 228.466 460.277 228.744L460.635 228.954L461.013 228.779C462.39 228.138 463.685 227.15 464.972 225.757L465.005 225.721L465.034 225.68C465.481 225.045 465.93 224.411 466.405 223.75L466.663 223.362L466.685 223.198C466.696 223.117 466.73 223.037 466.791 222.95L467.141 222.45C469.146 219.59 471.417 216.348 474.222 213.972C475.644 212.616 477.064 211.549 478.566 210.71C478.685 210.644 478.793 210.611 478.888 210.611C478.941 210.612 478.991 210.623 479.04 210.645L479.534 210.863L479.914 210.488C480.211 210.192 480.51 209.898 480.811 209.606L481.591 208.852L480.589 208.404C475.343 206.052 470.781 202.961 467.396 199.467" fill="#FAFBCB"/>
<path d="M600.722 260.583C597.639 268.041 598.239 275.541 595.626 283.168C593.78 288.558 592.245 326.537 589.511 330.537C588.908 331.42 581.82 348.176 566.243 347.216C555.768 348.953 528.675 347.945 518.093 349.007C510.482 348.738 502.875 348.422 495.246 348.534C489.493 348.618 483.736 348.88 477.98 349.084C477.76 348.88 477.47 348.751 477.112 348.763C475.543 348.818 473.967 348.499 472.588 347.889C471.429 347.191 470.415 346.176 469.54 345.03C469.16 343.029 469.538 340.879 470.778 338.628C473.071 334.468 477.37 331.325 481.729 329.405C486.305 327.39 489.915 328.619 493.961 325.438C495.044 324.585 496.478 320.971 497.232 319.911C498.717 318.298 501.691 317.118 502.932 315.586C505.411 312.528 507.192 311.052 508.851 307.271C514.996 305.21 521.319 302.447 527.707 301.83C527.794 301.836 527.88 301.844 527.966 301.85C530.359 302.008 532.749 301.785 535.136 301.477C537.104 301.496 539.075 301.587 541.094 301.796C548.518 302.568 555.92 303.908 563.125 305.801C564.599 306.188 565.565 304.145 564.195 303.407C563.7 303.141 563.235 302.85 562.785 302.544C562.833 302.545 562.882 302.546 562.93 302.547C563.374 302.554 563.905 302.163 564.225 301.697C564.612 301.723 564.999 301.753 565.387 301.779C566.372 301.849 567.721 299.773 566.442 299.492C566.391 299.48 566.339 299.472 566.288 299.46C566.538 299.448 566.789 299.439 567.039 299.427C568.162 299.369 569.416 297.196 567.834 297.096C560.698 296.642 553.559 296.237 546.418 295.88C546.637 295.713 546.867 295.457 547.047 295.181C547.925 294.977 548.806 294.787 549.693 294.614C551.503 294.323 558.783 289.746 557.284 289.903C555.251 290.115 553.211 290.395 551.178 290.741C551.083 290.51 550.93 290.299 550.703 290.138C549.836 289.515 549.179 288.831 548.757 288.093C548.708 286.463 548.858 284.883 549.157 283.336C549.248 283.139 549.285 282.945 549.274 282.761C550.357 277.788 552.919 273.15 555.191 268.302C558.206 261.872 558.28 254.321 562.442 248.374C563.035 247.526 562.267 246.404 561.284 246.385C560.837 246.42 560.401 246.376 559.977 246.269C559.959 246.213 559.937 246.165 559.912 246.12C559.952 245.422 557.384 240.689 556.885 241.737C555.208 245.252 553.353 248.695 551.745 252.238C551.618 251.543 551.456 250.856 551.259 250.181C551.253 248.453 549.159 243.302 548.628 244.487C547.875 243.832 546.91 253.614 546.899 254.797C545.709 258.488 544.708 262.227 543.993 266.035C542.155 270.723 539.76 275.142 536.238 278.711C535.926 274.678 537.366 269.253 537.428 266.957C537.428 266.943 537.424 266.932 537.424 266.918C537.959 266.594 538.492 266.265 538.992 265.904C539.961 265.207 540.67 264.411 541.163 263.542C541.821 263.443 542.439 262.962 542.367 262.265C542.299 261.611 542.187 260.949 542.048 260.282C542.078 259.457 541.997 258.595 541.814 257.702C541.807 257.671 541.797 257.646 541.789 257.617C541.948 254.427 541.117 251.161 540.01 248.027C540.209 246.821 540.641 245.647 541.41 244.516C541.631 244.351 541.852 244.187 542.079 244.032C542.186 244.012 542.292 243.983 542.397 243.935C544.651 242.915 546.971 242.158 549.36 241.5C550.384 241.218 551.544 240.832 552.712 240.522C553.091 240.937 553.723 241.163 554.399 240.884C555.083 240.601 555.744 240.281 556.388 239.936C556.527 239.886 556.648 239.817 556.753 239.732C557.101 239.537 557.445 239.336 557.785 239.129C558.121 238.952 558.453 238.771 558.782 238.587C559.156 239.04 559.771 239.257 560.404 238.831C560.939 238.472 561.355 238.065 561.708 237.619C561.812 237.537 561.909 237.439 561.994 237.321C565.72 232.159 562.267 186.092 562.295 184.128C564.036 180.756 574.011 184.681 574.919 184.708C578.405 185.702 585.244 187.825 588.773 189.032C589.758 189.482 590.741 189.944 591.721 190.412C603.08 197.297 607.541 209.128 607.725 217.183C607.885 224.227 603.806 253.119 600.722 260.583V260.583ZM462.644 325.508C463.518 325.044 464.347 324.57 465.105 324.115C465.224 324.044 465.34 323.965 465.46 323.89C468.568 322.817 471.463 321.233 473.915 319.075C480.586 313.202 482.575 304.717 481.752 296.317C482.806 296.326 483.859 296.345 484.913 296.357C484.999 296.819 485.078 297.281 485.147 297.742C484.585 298.413 484.337 299.465 485.36 299.499C485.422 300.119 485.462 300.735 485.49 301.352C485.157 304.822 484.261 308.247 482.741 311.502C481.096 315.03 478.825 318.208 476.165 321.076C476.158 321.081 476.151 321.083 476.143 321.088C474.831 321.929 473.551 322.812 472.287 323.711C469.463 324.849 466.406 325.519 463.375 325.734C463.139 325.645 462.896 325.57 462.644 325.508V325.508ZM459.065 331.476C456.991 332.771 454.933 334.097 452.886 335.437C452.528 335.384 450.372 336.955 449.678 337.55C436.245 346.439 422.969 355.554 407.104 360.119C400.074 362.142 392.589 363.329 385.297 363.999C377.868 364.682 370.299 364.364 363.185 362.043C356.84 359.972 351.191 356.125 347.467 350.727C344.095 345.838 342.496 339.998 341.573 334.26C340.811 329.527 342.133 317.855 342.148 316.535C342.17 314.667 356.885 308.886 356.926 307.019C356.976 304.739 340.848 305.83 340.924 303.55C340.952 302.731 347.152 301.66 347.183 300.841C347.229 299.594 342.204 297.555 342.257 296.308C342.363 293.814 341.383 292.365 341.512 289.873C342.4 272.604 342.788 255.36 344.358 238.139C344.901 232.183 347.353 213.214 347.538 210.957C348.485 204.385 349.955 198.311 352.992 192.178C353.645 190.86 359.294 193.921 360.101 192.71C361.942 190.708 355.457 184.428 361.437 182.019C363.175 181.095 365.012 180.313 366.771 179.54C370.571 177.869 374.509 176.504 378.479 175.264C388.129 172.251 398.075 170.735 407.867 168.32C409.117 168.012 410.37 167.715 411.627 167.427C423.195 165.126 427.672 170.227 427.739 172.618C427.59 173.406 416.034 195.906 414.732 200.401C414.699 200.438 414.666 200.471 414.635 200.512C412.507 203.398 410.672 206.504 409.068 209.737C408.842 208.677 408.614 207.615 408.361 206.559C408.236 206.042 404.854 203.691 404.662 204.949C403.684 211.341 403.093 217.813 403.475 224.263C403.475 224.269 403.474 224.276 403.473 224.282C403.266 224.984 403.064 225.687 402.87 226.388C401.182 222.68 393.395 211.776 393.395 211.776C392.618 211.769 392.076 212.364 392.023 213.079C391.749 216.793 393.252 220.693 395 223.898C395.746 225.266 394.141 227.363 394.576 229.991C394.788 231.282 397.146 232.714 397.297 234.223C398.615 247.399 400.954 270.466 400.632 279.257C400.546 280.201 389.467 290.9 387.974 292.412C383.797 296.03 379.888 299.948 376.448 304.206C375.817 304.775 375.188 305.344 374.568 305.924C371.866 308.449 369.447 309.097 365.223 312.616C364.643 313.088 353.142 311.938 361.114 315.736C361.462 315.902 363.893 317.393 363.634 317.635C363.592 317.668 363.55 317.704 363.507 317.738C363.412 317.814 363.333 317.898 363.263 317.984C362.707 318.503 360.218 324.693 361.452 323.762C367.993 318.826 407.16 281.9 407.157 281.595C408.563 280.429 409.964 279.256 411.356 278.07C415.882 274.216 420.839 269.841 426.213 266.164C428.609 265.413 430.996 264.478 433.447 263.994C432.492 264.743 425.611 271.886 424.221 274.546C424.075 274.798 423.92 275.041 423.78 275.297C423.69 275.463 423.64 275.622 423.613 275.775C420.702 282.035 419.994 289.252 421.154 296.277C421.374 299.142 421.908 301.92 422.801 304.459C424.757 310.022 428.309 314.709 432.845 318.252C438.309 323.183 445.204 326.45 452.633 328.067C452.727 328.277 452.936 328.417 453.304 328.42C453.602 328.422 453.904 328.409 454.209 328.384C455.604 328.642 457.014 328.845 458.435 328.989C459.567 329.631 459.582 330.552 459.065 331.476V331.476ZM404.996 244.63C406.446 236.902 409.159 229.612 413.796 223.139C416.067 222.08 418.452 221.968 420.816 222.447C422.029 223.06 423.264 223.634 424.442 224.254C424.798 224.441 425.116 224.635 425.416 224.831C426.511 226.708 426.975 228.967 426.585 231.119C426.325 232.546 425.704 233.797 424.989 234.995C423.985 236.118 423.18 237.356 422.707 238.787C422.046 240.095 421.595 241.486 421.693 243.118C421.983 247.979 425.665 251.72 428.01 255.885C427.737 257.429 427.056 258.83 426.123 260.093C422.438 262.173 413.719 265.077 409.421 260.129C403.641 255.695 405.137 248.069 404.996 244.63V244.63ZM438.348 167.756C439.723 166.939 441.191 166.252 442.762 165.737C442.975 165.666 443.22 165.467 443.437 165.213C443.633 165.047 443.799 164.851 443.903 164.639C443.999 164.496 444.083 164.334 444.16 164.161C444.332 164.16 444.506 164.162 444.68 164.161C443.637 165.852 443.518 168.581 443.485 170.06C443.429 172.523 443.562 174.996 443.8 177.465C443.478 183.817 444.104 190.279 444.966 196.432C445.987 203.723 447.579 211.218 450.198 218.275C450.39 219.15 450.604 220.023 450.843 220.886C450.754 221.056 450.709 221.256 450.735 221.482C451.02 223.99 451.559 226.663 453.09 228.683C453.246 229.186 453.405 229.689 453.565 230.191C454.349 233.396 455.294 236.554 456.75 239.56L456.754 239.566C456.809 239.769 456.86 239.974 456.915 240.178C457.267 241.497 457.624 242.815 457.985 244.13C458.1 245.868 458.465 247.592 459.06 249.206C459.158 249.469 459.328 249.589 459.529 249.614C460.148 251.765 460.781 253.912 461.442 256.052C461.503 256.248 461.563 256.445 461.623 256.642C461.596 256.691 461.57 256.741 461.545 256.791C461.324 257.207 461.307 257.531 461.407 257.763C455.502 255.014 449.087 253.996 442.75 255.812C442.603 255.762 442.419 255.747 442.181 255.795C441.517 255.925 440.944 256.156 440.414 256.516C435.65 251.468 429.379 247.043 426.1 240.978C426.088 240.955 426.073 240.941 426.06 240.92C425.999 240.595 425.951 240.268 425.93 239.933C425.837 238.447 426.846 236.844 428.219 235.208C428.582 235.176 428.942 234.99 429.206 234.585C429.501 234.135 429.767 233.681 430.005 233.221C430.088 233.133 430.172 233.044 430.255 232.956C431.313 232.149 432.372 231.376 433.304 230.595C435.296 228.927 437.121 227.092 438.405 224.899C438.604 224.715 438.804 224.532 439.001 224.347C439.333 224.034 439.525 223.43 439.338 223.009C439.342 222.995 439.35 222.984 439.354 222.972C439.577 222.403 439.302 221.872 438.68 221.796C437.185 221.61 435.727 221.307 434.292 220.929C433.906 220.794 433.522 220.66 433.136 220.527C432.517 220.245 431.902 220.004 431.359 219.791C429.472 219.047 427.523 218.488 425.621 217.803C423.946 216.972 422.252 216.176 420.529 215.44C419.717 213.489 419.575 211.051 419.808 208.49C422.139 203.595 423.149 198.166 423.995 192.748C424.671 190.861 425.39 188.952 426.16 187.041C426.732 185.941 427.301 184.837 427.877 183.735C430.968 178.185 434.554 172.876 438.348 167.756ZM447.714 177.796C448.062 178.947 448.483 180.071 448.942 181.147C451.411 186.939 455.689 191.634 460.816 195.341C460.95 195.459 461.082 195.577 461.216 195.692C462.988 197.248 464.87 198.663 466.833 199.976C470.564 203.828 475.319 206.862 480.265 209.08C479.962 209.373 479.661 209.67 479.361 209.967C479.03 209.821 478.623 209.817 478.179 210.065C476.498 211.005 475.025 212.159 473.68 213.441C470.671 215.989 468.281 219.499 466.152 222.532C466.015 222.727 465.945 222.918 465.92 223.101C465.865 223.185 465.808 223.268 465.752 223.352C465.295 223.986 464.844 224.623 464.396 225.261C463.32 226.425 462.1 227.445 460.678 228.107C460.252 227.857 459.832 227.598 459.418 227.325C458.256 225.404 457.187 223.449 456.215 221.459C454.662 217.559 453.548 213.459 451.973 209.539C451.825 209.038 451.681 208.535 451.54 208.032C451.238 206.673 450.94 205.312 450.652 203.95C450.098 197.4 449.754 190.721 447.851 184.43C447.714 182.22 447.665 180.005 447.714 177.796V177.796ZM455.825 170.416C456.212 167.8 457.892 165.668 459.912 163.927C469.973 163.716 480.032 163.467 490.097 163.641C506.266 163.919 521.94 165.78 537.405 170.087C537.262 170.391 537.208 170.71 537.303 170.98C538.534 174.464 537.512 177.253 537.238 180.884C534.778 185.491 517.064 201.142 510.306 202.145C508.975 202.188 507.662 202.205 506.384 202.198C497.366 202.146 488.93 200.627 480.779 196.87C472.281 192.951 463.289 187.272 458.179 179.428C456.419 176.724 455.349 173.622 455.825 170.416V170.416ZM541.977 183.776C542.69 183.451 542.481 188.515 535.823 199.016C532.234 204.312 528.514 209.557 524.971 214.904C523.765 216.372 522.585 217.861 521.442 219.375C516.5 226.86 508.926 237.067 508.222 237.897C506.942 236.08 506.14 233.881 505.375 231.867C506.13 232.487 505.058 228.007 503.873 226.359C503.509 225.852 500.103 215.541 497.3 213.184C497.199 213.073 497.09 212.981 496.976 212.911C496.951 212.891 496.925 212.871 496.899 212.853C496.595 212.579 496.278 212.324 495.941 212.109C498.915 211.717 513.469 205.416 519.185 202.047C525.845 198.123 535.196 191.608 541.977 183.776V183.776ZM497.281 246.196C497.695 243.98 498.347 241.84 499.31 239.841C499.465 239.675 499.582 239.483 499.627 239.28C499.636 239.239 499.643 239.199 499.652 239.159C499.929 238.635 500.231 238.122 500.553 237.621C500.641 237.495 500.732 237.37 500.821 237.246C501.417 237.673 502.024 238.087 502.635 238.495C503.636 239.68 504.7 240.811 505.822 241.916C506.119 242.209 506.525 242.118 506.875 241.927C506.889 241.932 506.902 241.938 506.916 241.942C507.04 242.136 507.162 242.332 507.287 242.526C507.631 243.061 508.362 242.919 508.795 242.563C509.85 241.694 510.818 240.761 511.721 239.778C511.806 240.638 511.923 241.497 512.108 242.359C512.333 243.406 513.642 243.562 514.356 242.954C511.946 246.366 509.485 249.746 506.974 253.09C505.488 254.468 503.939 255.771 502.312 256.94C500.986 257.024 499.762 256.786 498.249 256.458C498.175 253.017 497.853 249.568 497.281 246.196ZM494.955 228.401C495.256 228.811 495.859 229.007 496.402 228.937C496.41 229.041 496.421 229.143 496.429 229.246C496.522 230.531 496.538 231.878 496.385 233.197C496.321 233.621 496.251 234.045 496.177 234.467C495.975 235.421 495.666 236.346 495.204 237.204C495.014 237.555 494.794 237.87 494.55 238.152C494.159 238.313 493.763 238.657 493.534 239.048C492.518 239.748 491.282 240.125 489.999 240.305C486.633 238.382 482.116 238.199 477.869 238.79C476.907 238.476 475.973 238.1 475.114 237.644C472.966 235.946 472.728 233.23 472.839 230.398C472.86 229.907 472.92 229.412 473.008 228.919C474.281 226.15 475.704 223.447 477.64 221.106C479.387 218.995 481.59 217.836 483.997 217.292C484.114 217.371 484.269 217.422 484.48 217.429C485.02 217.446 485.543 217.488 486.055 217.549C486.198 217.661 486.377 217.75 486.602 217.802C491.365 218.911 494.066 222.378 493.686 227.118C493.621 227.932 494.272 228.375 494.955 228.401ZM483.608 280.095C480.148 273.106 474.292 266.023 467.271 261.154C466.738 259.709 466.214 258.261 465.698 256.81C465.835 256.663 465.945 256.505 466.005 256.346C466.82 254.195 467.399 251.986 467.908 249.76C469.547 246.993 471.244 244.26 473.112 241.63C473.23 241.728 473.403 241.792 473.654 241.797C476.078 241.84 478.493 242.031 480.898 242.305C481.365 242.373 481.833 242.429 482.3 242.478C483.473 242.628 484.645 242.792 485.814 242.972C487.265 243.248 488.717 243.52 490.171 243.765C491.62 245.338 492.481 247.412 492.894 249.612C493.033 250.347 493.139 251.09 493.229 251.835L493.098 266.876C492.832 268.283 492.543 269.682 492.246 271.071C492.177 271.388 492.23 271.595 492.349 271.724C489.913 274.713 487.457 277.685 484.985 280.644C484.978 280.64 484.973 280.635 484.965 280.631C484.518 280.429 484.065 280.256 483.608 280.095V280.095ZM461.638 244.827C461.409 244.119 461.185 243.411 460.96 242.703C460.878 241.422 460.82 240.141 460.863 238.855C460.875 238.489 460.905 238.14 460.944 237.802C461.469 236.45 462.273 235.204 463.415 234.158C464.077 233.549 465.214 232.752 466.22 232.917C466.428 234.822 466.874 236.755 467.222 238.737C466.448 241.843 464.812 244.33 461.638 244.827V244.827ZM543.243 195.219C544.664 191.962 547.809 177.646 550.251 176.477C554.883 176.611 557.152 185.308 557.354 185.714C557.374 185.932 557.628 193.851 557.853 197.601C557.848 197.647 557.843 197.694 557.839 197.739C557.47 201.907 560.723 221.055 560.527 225.931C560.024 228.279 559.358 230.587 558.156 232.704C557.549 233.773 556.802 234.545 555.947 235.124C553.62 235.485 551.318 235.967 549.033 236.521C546.169 237.023 543.305 237.527 540.442 238.036C539.269 238.142 538.091 238.308 536.973 238.584C535.896 238.759 533.716 239.251 533.692 239.26C533.638 239.143 533.581 239.028 533.528 238.912C533.442 238.663 531.287 240.83 531.619 241.821C531.192 242.424 536.962 256.795 537.308 257.989C537.32 258.531 537.304 259.077 537.247 259.626C537.189 260.217 537.065 260.79 536.895 261.348C534.418 264.409 530.908 266.968 527.743 268.893C526.868 269.425 526.99 270.669 527.658 271.172C523.366 274.733 519.103 278.326 514.894 281.977C511.167 285.212 507.468 288.488 503.952 291.938C503.436 292.443 502.761 293.043 502.086 293.704C499.97 293.7 497.86 293.835 495.76 294.172C493.061 294.123 490.361 294.084 487.662 294.051C487.319 290.791 486.554 287.54 485.42 284.358C497.204 273.274 506.658 260.319 515.94 247.246C515.651 247.162 515.441 246.868 515.636 246.509C515.888 246.043 516.15 245.582 516.416 245.125C516.193 244.988 516.05 244.708 516.199 244.411C519.07 238.66 522.256 233.082 525.58 227.579C525.526 227.448 525.519 227.294 525.602 227.132C530.79 216.956 536.562 207.079 542.495 197.296C542.741 196.602 542.993 195.911 543.243 195.219V195.219ZM609.824 199.072C609.449 198.303 600.682 186.966 594.584 184.157C588.108 181.176 572.738 175.777 565.966 174.209C563.936 173.739 561.886 174.807 559.849 174.193C558.147 173.68 556.456 171.505 554.753 170.856C548.229 168.368 550.38 169.385 543.966 167.084C543.741 167.002 543.514 166.918 543.29 166.836C542.182 166.425 533.849 164.438 531.286 163.773C508.219 157.789 449.823 158.414 448.29 158.594C447.464 158.691 445.243 157.567 444.49 157.509C436.791 156.906 437.847 158.973 430.308 160.804C428.148 161.329 424.794 160.303 422.683 160.846C413.934 163.096 397.589 166.159 388.757 168.064C378.598 170.254 356.213 178.718 355.704 179.214C350.561 184.237 347.318 191.613 345.264 198.329C345.182 198.471 345.124 198.619 345.104 198.767C345.096 198.83 345.085 198.893 345.077 198.954C344.652 200.399 344.28 201.859 343.955 203.327C343.229 206.154 342.695 209.029 342.261 211.892C342.016 213.238 341.792 214.586 341.592 215.939C339.585 226.521 338.478 237.302 337.621 247.972C336.691 259.546 336.229 271.146 335.842 282.748C335.503 287.555 335.241 292.366 335.07 297.181C334.879 301.138 334.83 305.098 334.84 309.058C334.778 311.221 334.78 313.379 334.865 315.53C334.866 317.348 334.887 319.163 334.958 320.975C334.987 323.61 335.006 326.245 334.988 328.88C334.985 329.388 335.163 329.634 335.42 329.707C335.522 331.368 335.412 333.059 335.764 334.689C342.256 364.684 358.422 368.175 362.812 370.167C376.261 376.23 397.804 371.339 411.009 365.066C417.761 362.951 424.184 360.042 430.25 356.535C431.461 356.042 432.653 355.533 433.814 354.991C465.489 358.557 497.266 356.222 529.071 355.824C541.348 355.669 571.205 355.278 582.348 349.76C590.832 345.559 594.108 334.639 596.888 326.547C600.712 315.411 600.676 278.344 603.736 270.784C605.508 266.409 613.099 223.661 613.557 212.668C613.749 208.047 610.286 199.513 609.824 199.072" fill="#100D0B"/>
<path d="M492.763 354.477C493.954 354.488 495.077 352.161 493.558 352.148C492.368 352.137 491.245 354.464 492.763 354.477" fill="#100D0B"/>
<path d="M490.568 356.563C491.759 356.574 492.882 354.247 491.362 354.233C490.173 354.223 489.049 356.55 490.568 356.563Z" fill="#100D0B"/>
<path d="M492.727 358.686C495.63 358.712 498.533 358.737 501.435 358.762C502.626 358.773 503.749 356.446 502.229 356.432C499.327 356.407 496.424 356.382 493.522 356.356C492.331 356.346 491.208 358.673 492.727 358.686Z" fill="#100D0B"/>
<path d="M512.348 355.701C513.539 355.711 514.662 353.385 513.142 353.371C511.953 353.361 510.829 355.688 512.348 355.701" fill="#100D0B"/>
<path d="M516.069 353.219C516.07 353.05 516.072 352.882 516.081 352.713C516.084 352.637 516.095 352.561 516.106 352.485C516.048 352.861 516.2 352.373 516.01 352.764C516.055 352.673 516.214 352.496 515.972 352.8C516.031 352.727 516.099 352.657 516.164 352.587C516.356 352.386 516.562 352.198 516.763 352.007C517.151 351.638 517.403 350.805 516.922 350.409C516.39 349.969 515.701 350.442 515.314 350.811C514.884 351.219 514.438 351.623 514.143 352.14C513.849 352.659 513.8 353.21 513.794 353.787C513.789 354.375 514.177 354.793 514.819 354.633C515.418 354.483 516.063 353.846 516.069 353.219" fill="#100D0B"/>
<path d="M515.632 353.626C516.823 353.636 517.946 351.308 516.427 351.295C515.237 351.285 514.113 353.612 515.632 353.626Z" fill="#100D0B"/>
<path d="M516.73 352.583C517.92 352.594 519.043 350.266 517.524 350.253C516.334 350.243 515.21 352.57 516.73 352.583Z" fill="#100D0B"/>
<path d="M517.818 352.593C519.009 352.603 520.132 350.276 518.613 350.263C517.423 350.252 516.3 352.579 517.818 352.593Z" fill="#100D0B"/>
<path d="M517.818 352.593C519.009 352.603 520.132 350.276 518.613 350.263C517.423 350.252 516.3 352.579 517.818 352.593Z" fill="#100D0B"/>
<path d="M518.897 353.654C520.088 353.664 521.211 351.337 519.691 351.323C518.502 351.313 517.379 353.641 518.897 353.654Z" fill="#100D0B"/>
<path d="M501.83 313.521C502.418 313.527 502.954 313.492 503.497 313.256C504.136 312.977 504.651 312.385 505.138 311.923C505.525 311.554 505.777 310.721 505.297 310.325C504.765 309.885 504.077 310.359 503.689 310.726C503.611 310.8 503.533 310.875 503.455 310.948C503.631 310.781 503.353 311.037 503.338 311.049C503.266 311.113 503.19 311.173 503.114 311.232C502.883 311.41 503.372 311.094 503.137 311.214C503.325 311.151 503.358 311.138 503.237 311.176C503.171 311.195 502.945 311.209 503.232 311.184C503.03 311.201 502.825 311.194 502.624 311.192C501.954 311.186 501.353 311.763 501.156 312.345C500.98 312.862 501.168 313.517 501.83 313.521" fill="#100D0B"/>
<path d="M371.225 310.278C372.415 310.289 373.538 307.962 372.019 307.949C370.829 307.938 369.706 310.265 371.225 310.278Z" fill="#100D0B"/>
<path d="M369.011 314.468C370.201 314.478 371.325 312.151 369.805 312.138C368.615 312.127 367.492 314.454 369.011 314.468Z" fill="#100D0B"/>
<path d="M367.886 318.666C369.076 318.677 370.199 316.349 368.68 316.336C367.49 316.326 366.366 318.653 367.886 318.666Z" fill="#100D0B"/>
<path d="M477.738 328.182C465.107 327.39 455.631 323.967 445.744 316.559C439.318 310.16 417.985 298.426 433.674 289.214C430.408 285.179 425.904 278.387 429.857 273.172C432.456 269.745 438.365 266.344 438.669 263.008C435.096 256.559 437.294 251.961 442.494 249.086C446.08 247.786 450.73 246.895 453.06 243.991C456.614 239.561 456.36 230.018 464.752 230.092C473.539 230.168 482.313 226.675 490.78 226.296C495.848 226.07 500.979 228.072 505.601 230.461C508.695 232.061 512.86 235.003 514.06 238.218C515.074 241.467 513.194 247.087 515.653 249.707C521.582 256.035 533.631 268.668 532.866 277.435C532.519 281.397 529.064 283.082 530.855 286.752C531.894 292.184 537.543 296.272 529.317 299.385C520.236 302.82 512.276 295.012 506.864 289.418C502.826 293.119 504.247 295.247 505.232 299.301C505.949 306.694 499.463 307.153 496.44 312.242C494.579 315.374 498.79 319.815 492.156 323.264C487.524 327.23 483.088 327.244 477.738 328.182C477.738 328.182 477.644 328.177 477.738 328.182Z" fill="#F9A989"/>
<path d="M485.99 244.996C486.513 243.979 495.749 232.607 496.174 231.986C496.109 231.755 494.39 231.322 494.39 231.322C493.204 231.475 490.93 233.064 487.867 235.372C485.763 238.614 484.222 240.161 484.006 242.116C483.975 242.396 485.99 244.996 485.99 244.996ZM522.012 282.039C522.568 282.338 523.125 282.639 523.674 282.95C524.889 283.642 526.235 284.441 527.56 285.38C527.388 284.697 527.291 284.03 527.27 283.383C525.83 282.475 524.074 281.403 522.5 281.389C522.447 281.389 522.394 281.389 522.341 281.39C522.266 281.62 522.155 281.839 522.012 282.039ZM494.882 286.129C496.26 286.441 497.641 286.737 499.015 287.02C499.09 286.994 499.165 286.97 499.238 286.946C500.738 286.055 501.977 284.618 503.17 283.204C503.144 282.872 503.114 282.54 503.079 282.209C502.892 281.622 502.688 281.037 502.484 280.45C502.053 279.212 501.608 277.934 501.317 276.634C501.177 276.488 501.041 276.341 500.908 276.193C501.18 279.73 500.105 282.806 497.83 284.742C497.513 285.012 497.136 285.153 496.74 285.15C496.556 285.148 496.373 285.115 496.199 285.052C495.784 285.447 495.348 285.803 494.882 286.129V286.129ZM516.518 294.695C518.58 296.233 530.403 298.852 530.876 292.486C530.99 290.939 527.313 288.86 526.136 288.054C524.587 286.993 522.845 285.978 520.812 284.954C520.672 284.884 520.523 284.811 520.371 284.738C518.934 284.041 516.762 282.99 517.304 280.733C517.365 280.472 517.466 280.215 517.602 279.97C517.837 279.253 518.382 278.699 519.11 278.444C519.317 278.371 519.565 278.133 519.828 277.882C520.228 277.499 520.681 277.065 521.327 276.853C521.802 276.696 522.34 276.62 522.927 276.625C523.538 276.63 524.195 276.719 524.994 276.903C526.6 277.273 528.147 278.074 529.327 279.118C531.962 273.938 525.012 268.666 524.207 268.316C523.271 267.91 522.948 267.109 523.06 266.375C521.069 264.277 519.516 261.684 518.438 258.66C518.374 258.482 518.336 258.3 518.326 258.116C518.326 258.116 517.945 257.42 517.836 257.222C516.702 257.532 515.681 258.191 514.607 258.883C514.512 258.945 514.415 259.007 514.319 259.068C514.29 259.487 514.094 259.887 513.745 260.222C510.643 263.182 505.83 265.379 501.262 265.96C501.382 266.161 501.496 266.343 501.608 266.512C502.163 267.19 502.772 267.859 503.421 268.5C503.901 268.848 504.388 269.212 504.895 269.6C504.967 269.459 505.042 269.32 505.12 269.185C505.264 268.938 505.46 268.728 505.702 268.559C506.111 267.884 506.562 267.224 507 266.585C507.22 266.263 507.44 265.941 507.652 265.621C507.997 265.1 508.546 264.807 509.159 264.812C509.855 264.818 510.56 265.214 510.956 265.821C511.323 266.385 511.372 267.043 511.088 267.627C510.831 268.157 510.499 268.698 510.176 269.222C509.913 269.651 509.646 270.086 509.415 270.521C509.561 270.433 509.719 270.361 509.886 270.309C511.032 269.437 512.313 268.593 514.132 268.429C514.207 268.423 514.279 268.421 514.35 268.421C515.535 268.432 516.279 269.367 516.401 270.285C516.537 271.3 515.962 272.158 514.969 272.418C514.684 272.493 514.389 272.595 514.054 272.733C513.568 273.256 513.069 273.767 512.571 274.277C512.342 274.511 512.114 274.745 511.887 274.979C511.436 275.574 511.002 276.211 510.582 276.828C510.092 277.545 509.587 278.287 509.034 278.997C504.86 287.678 513.334 292.318 516.518 294.695ZM487.17 308.902C487.799 308.942 488.4 308.964 488.984 308.969C491.744 308.993 494.047 308.629 496.021 307.855C497.246 307.136 498.34 306.272 499.497 305.357L499.782 305.132C500.185 304.655 500.535 304.176 500.825 303.707C500.61 302.604 500.547 301.521 500.503 300.419C499.724 298.673 498.651 297.095 497.131 295.472C497.124 296.082 497.07 296.733 496.971 297.419C497.095 300.163 491.962 304.979 491.61 304.456C491.414 304.167 491.314 303.841 491.309 303.508C491.143 303.781 490.965 304.051 490.776 304.315C489.891 305.872 488.882 307.219 487.776 308.32C487.567 308.528 487.366 308.721 487.17 308.902V308.902ZM478.723 322.691C479.299 322.696 479.874 322.695 480.451 322.685C482.411 322.064 484.405 321.619 486.379 321.366L486.4 321.36C488.846 320.616 489.612 319.46 490.863 317.308C491.071 316.95 491.366 316.663 491.723 316.462C491.51 315.816 491.238 315.166 490.972 314.534L490.533 314.561C488.707 314.668 486.82 314.78 484.957 314.763C483.649 314.752 482.445 314.678 481.321 314.536C481.337 314.615 481.346 314.697 481.352 314.778C481.394 315.444 481.104 316.11 480.578 316.576C480.059 318.603 473.896 321.397 473.642 320.777C473.414 320.223 473.558 319.632 474.027 319.197C474.913 318.376 476.253 317.136 476.176 315.917C476.097 314.658 475.678 313.738 474.746 312.796C472.154 312.433 469.941 311.645 468.166 310.45C466.929 309.946 462.147 307.829 460.957 307.341C458.706 307.275 452.582 306.242 452.25 304.809C452.183 304.516 452.265 304.102 452.698 303.852C452.802 303.769 452.903 303.697 453.003 303.634C452.871 303.107 451.929 301.95 451.599 301.545C451.333 301.218 451.123 300.96 451 300.76C450.95 300.682 450.906 300.596 450.865 300.505C450.701 300.274 450.54 300.039 450.388 299.795C449.952 299.095 449.926 298.312 450.318 297.649C450.71 296.983 451.451 296.574 452.253 296.581C452.712 296.585 453.163 296.728 453.56 296.995C454.385 297.549 455.122 298.199 455.835 298.826C456.575 299.475 457.273 300.092 458.052 300.6C459.943 301.836 472.113 307.133 479.43 307.197C482.108 307.056 484.578 306.152 486.415 304.635C487.953 302.592 489.11 300.336 489.854 297.931C490.074 297.217 490.727 296.742 491.478 296.749C491.937 296.753 492.368 296.937 492.664 297.255C491.98 296.387 491.409 295.452 490.856 294.546C489.802 292.818 488.807 291.185 487.211 290.33C487.211 290.33 463.751 284.529 459.761 281.693C459.503 281.899 459.244 282.079 458.982 282.239C458.982 282.239 456.531 283.309 456.277 283.202C456.228 283.205 456.178 283.207 456.129 283.206C455.379 283.2 454.695 282.711 454.384 281.963C454.079 281.226 455.681 279.247 456.163 278.948C456.341 278.672 456.52 278.419 456.702 278.186C455.899 276.937 454.501 272.881 454.821 272.427C455.169 271.932 455.776 271.627 456.404 271.633C456.902 271.637 457.354 271.839 457.677 272.194C457.711 272.192 460.714 274.676 460.714 274.676C460.909 274.966 461.012 275.285 461.018 275.61C461.058 275.696 461.095 275.782 461.131 275.868C461.139 275.868 462.282 275.958 462.87 276.12C465.099 276.736 481.378 285.313 491.703 285.386C492.094 285.481 492.851 284.87 493.153 284.575C494.822 282.943 495.857 281.001 496.228 278.807C496.261 278.601 496.291 278.393 496.314 278.185C496.492 276.56 496.312 274.849 495.78 273.099C495.706 272.86 495.688 272.621 495.724 272.389C495.257 271.772 494.816 271.156 494.409 270.554C494.273 270.414 494.136 270.276 493.998 270.138C493.57 269.709 493.13 269.266 492.72 268.793C481.551 260.819 467.414 258.783 465.328 257.558C464.61 257.137 464.244 256.297 464.439 255.517C464.57 254.997 464.924 254.601 465.413 254.403C465.384 254.342 465.359 254.277 465.336 254.213C464.587 253.803 463.858 253.331 463.166 252.81C462.508 252.313 462.279 251.505 462.568 250.7C462.868 249.867 463.615 249.314 464.428 249.321C464.754 249.324 465.069 249.415 465.364 249.593C465.501 249.675 465.639 249.758 465.775 249.843C465.765 249.616 465.802 249.391 465.889 249.174C465.577 248.575 465.595 247.914 465.943 247.34C466.315 246.724 467.006 246.33 467.704 246.336C468.324 246.342 468.883 246.661 469.236 247.212C469.458 247.556 469.684 247.898 469.913 248.233C471.346 250.235 473.222 251.825 475.031 253.278C475.256 253.348 475.455 253.382 475.622 253.384C475.648 253.384 475.674 253.384 475.701 253.382C475.767 253.378 475.831 253.377 475.895 253.378C476.86 253.386 477.741 253.895 478.227 254.701C478.415 254.763 478.602 254.823 478.788 254.881C478.077 253.543 477.415 252.017 476.779 250.258C476.587 249.724 476.676 249.149 477.024 248.68C477.401 248.171 478.022 247.858 478.643 247.864C478.696 247.864 478.749 247.868 478.801 247.872L479.15 247.908L479.413 248.266C479.695 248.611 479.984 248.96 480.277 249.305C481.066 250.325 481.915 251.249 482.823 252.079C483.216 252.468 483.617 252.843 484.066 253.246C484.183 253.351 484.292 253.45 484.403 253.545L484.591 253.704C484.735 253.827 484.878 253.95 485.026 254.065C487.045 255.706 489.926 256.93 491.631 257.754C499.79 261.7 507.469 253.987 509.075 251.226C514.725 241.514 508.598 235.813 507.162 234.815L507.033 234.768L506.974 234.705C506.118 233.994 505.161 233.384 504.193 232.932C504.121 232.939 504.049 232.942 503.979 232.941C503.744 232.939 503.507 232.896 503.277 232.815C502.947 232.699 502.59 232.588 502.157 232.471C501.92 232.428 501.687 232.404 501.451 232.4C501.357 232.604 501.219 232.79 501.039 232.95C496.83 236.714 493.332 241.269 489.703 247.72C489.389 248.532 489.081 249.35 488.774 250.172C489.06 250.652 489.086 251.219 488.829 251.733C488.496 252.399 487.763 252.842 487.005 252.836C486.862 252.834 486.723 252.818 486.587 252.785C485.824 252.758 485.143 252.283 484.881 251.624C482.736 249.855 480.472 247.931 478.372 245.831C478.112 245.571 477.934 245.27 477.847 244.948L477.769 244.877C477.262 244.386 477.081 243.649 477.296 242.953C477.412 242.577 477.627 242.255 477.908 242.023C477.846 241.418 478.098 240.81 478.646 240.284C479.493 239.473 480.059 238.468 480.659 237.404C480.978 236.839 481.307 236.256 481.686 235.692C482.843 233.969 484.043 232.504 485.356 231.214C486.448 230.141 487.853 229.259 489.132 228.56C489.086 228.569 488.97 228.596 488.97 228.596C487.61 229.381 486.092 230.25 484.48 230.892C484.422 231.143 484.308 231.388 484.14 231.618C483.389 232.641 482.653 233.674 481.917 234.705C479.93 237.488 477.876 240.366 475.584 243.027C475.226 243.443 474.728 243.668 474.181 243.663C473.632 243.658 473.09 243.41 472.731 242.999C472.38 242.599 472.235 242.09 472.322 241.568C472.342 241.447 472.364 241.325 472.387 241.202C472.313 241.253 472.24 241.302 472.167 241.351C471.854 241.559 471.484 241.667 471.098 241.663C470.491 241.658 469.907 241.382 469.537 240.927C469.195 240.504 469.077 239.983 469.206 239.462C469.776 237.13 471.424 233.852 473.471 232.096C473.785 231.828 474.174 231.688 474.598 231.691C475.068 231.695 475.544 231.883 475.912 232.197C476.013 231.982 476.116 231.771 476.22 231.565C475.189 231.103 473.856 230.836 472.505 230.824C472.291 230.822 472.073 230.826 471.86 230.837C471.532 230.895 471.209 230.963 470.886 231.034C469.772 231.526 468.773 232.25 467.619 233.085C467.351 233.281 467.077 233.479 466.796 233.679C466.532 234.411 465.853 234.856 465.021 234.849C464.939 234.848 461.584 234.989 459.723 238.139C457.515 241.878 456.813 245.494 455.867 247.389C455.607 247.912 454.297 250.749 452.056 251.022C449.975 251.275 445.766 251.43 443.738 255.488C442.147 260.439 445.716 265.569 446.197 267.028C446.452 267.798 446.245 269.88 445.394 270.283C443.165 271.34 440.284 270.705 435.785 274.506C432.059 277.654 434.461 284.13 436.181 285.791C437.932 287.482 438.976 288.398 439.637 289.302C440.043 289.857 440.053 290.598 439.763 291.22C438.614 293.692 432.544 291.421 431.355 297.519C431.073 298.965 431.884 300.982 433.416 302.531C434.963 304.095 439.972 308.726 440.879 309.488C441.378 309.909 445.187 312.814 447.678 314.901C454.258 320.412 459.945 322.083 464.449 322.428C464.449 322.428 476.867 322.675 478.723 322.691V322.691ZM443.841 317.432C439.383 314.217 430.537 306.435 429.691 305.347C427.358 302.347 425.923 298.3 425.932 296.022C425.951 291.096 430.227 289.136 430.846 288.674C429.585 286.96 426.049 282.668 426.89 274.626C427.368 270.048 434.478 264.986 436.646 263.363C434.981 260.01 434.51 255.853 435.489 252.822C435.978 251.311 438.886 247.228 445.303 245.466C446.281 245.198 451.025 243.262 451.382 242.917C452.996 234.382 459.469 229.905 462.231 228.454L462.326 228.404L462.432 228.381C463.253 228.204 464.062 228.119 464.839 228.126C465.308 228.13 465.772 228.167 466.221 228.238L467.089 227.967L467.219 227.919C467.369 227.857 467.526 227.801 467.684 227.747C468.159 227.567 471.726 226.881 472.334 226.839C473.876 226.728 475.442 226.661 476.954 226.598C478.451 226.534 480 226.468 481.515 226.361C481.569 226.356 481.626 226.354 481.681 226.354C481.894 226.356 482.103 226.393 482.3 226.462C487.935 224.231 494.081 224.471 501.69 226.197C503.818 226.68 507.644 228.918 509.41 230.163C509.433 230.18 509.49 230.239 509.49 230.239C511.589 232.235 517.156 236.347 516.696 245.055C516.652 245.897 516.076 247.158 517.23 248.388C518.399 249.634 519.712 250.803 520.98 251.933C521.827 252.687 522.703 253.468 523.537 254.271L523.61 254.341L523.661 254.428C527.245 258.913 527.652 263.527 530.579 267.059C531.76 268.208 538.12 276.789 533.063 283.098C532.825 283.724 532.549 284.243 532.209 284.689C532.349 285.028 532.515 285.395 532.717 285.814C541.831 295.637 531.876 300.713 530.427 301.282C530.195 301.372 529.661 301.414 529.633 301.412C529.115 301.585 513.136 304.032 507.84 293.51C507.642 293.118 507.26 292.808 506.972 292.425C506.811 292.64 506.663 292.86 506.536 293.089C506.431 293.602 506.243 294.093 505.975 294.55C505.967 294.564 505.958 294.578 505.95 294.593C506.049 294.918 508.469 301.181 506.258 305.465C506.239 305.502 504.058 311.229 498.941 312.809C499.339 314.285 500.042 318.759 497.383 321.661C496.493 322.634 494.938 323.94 493.239 324.971C491.643 325.94 483.367 328.517 480.802 328.615C454.027 329.74 445.668 318.75 443.841 317.432" fill="#100D0B"/>
<path d="M512.074 204.12C511.601 204.267 511.165 204.355 510.778 204.379C509.622 204.452 508.387 204.542 507.092 204.636C496.49 205.408 480.467 206.573 474.768 199.977L474.634 199.82L474.453 199.708C472.286 198.38 470.683 197.481 469.393 196.763C466.696 195.259 465.204 194.424 461.983 191.518C461.621 191.119 460.629 190.179 458.861 188.507C456.198 185.988 452.553 182.537 451.48 181.231C449.372 178.66 447.851 176.402 446.542 173.908C444.207 169.452 438.614 154.301 438.267 153.089L437.725 151.209L436.122 152.395C434.899 153.303 433.894 153.859 432.964 154.151C431.575 154.584 430.251 154.497 427.715 153.805C419.463 151.554 416.669 141.757 414.206 133.116C413.525 130.729 412.884 128.477 412.155 126.501L411.833 125.633C410.081 120.934 406.819 112.189 409.207 107.482C409.905 106.106 411.043 105.189 412.69 104.673C413.074 104.554 413.492 104.454 413.931 104.38C415.665 104.083 417.306 104.387 418.948 105.304L422.399 107.234L420.892 103.666C420.309 102.286 419.689 100.884 419.088 99.5315C416.995 94.812 414.831 89.932 413.848 84.9429C412.79 79.5824 414.04 74.3898 415.365 68.8936C415.517 68.2586 415.671 67.6237 415.82 66.9887L415.963 66.3822C417.042 61.7915 418.157 57.0456 418.664 52.2537C418.796 51.0117 418.852 49.7656 418.906 48.5609C419.019 46.0496 419.126 43.6766 419.866 41.3835C421.977 34.8359 426.302 29.6252 431.43 27.4447C431.978 27.2118 432.539 27.004 433.095 26.8308C435.361 26.1226 437.602 25.9234 439.756 26.2388L440.531 26.3519L441.022 25.764C444.875 21.1482 448.777 16.7577 454.153 13.7616C456.545 12.4269 459.233 11.2893 462.14 10.381C471.451 7.46844 482.94 6.73619 498.293 8.07358C517.288 9.72803 531.661 14.1907 542.232 21.7178C548.699 26.3207 552.079 31.6825 552.562 38.1083C552.793 41.1975 552.59 44.4125 552.392 47.5187C552.098 52.1352 551.794 56.9073 552.85 61.6073C553.096 62.7022 553.375 63.7905 553.644 64.8432C554.443 67.9616 555.198 70.9092 555.172 74.0394C555.142 77.6182 554.613 81.0863 554.053 84.7565L553.952 85.4204C553.692 87.1359 553.385 88.8744 553.089 90.555C552.512 93.8169 551.916 97.1894 551.622 100.601C551.594 100.939 551.489 102.3 551.489 102.3L551.211 105.73L553.788 103.359C554.437 102.762 555.156 102.33 555.864 102.108C556.941 101.772 557.963 101.936 558.9 102.593C562.782 105.316 561.14 111.519 559.82 116.501C559.5 117.711 559.196 118.853 558.994 119.875C558.969 119.992 558.925 120.253 558.861 120.63C556.391 135.359 553.938 138.576 552.997 139.275C552.638 139.544 552.295 139.726 551.951 139.834C551.635 139.934 551.329 139.967 551.005 140.002C550.658 140.04 550.263 140.082 549.849 140.211C548.837 140.527 548.092 141.235 547.433 142.503C546.221 144.838 544.774 151.435 543.775 156.557L543.723 156.819L543.724 156.818C543.55 157.63 541.778 167.114 541.545 168.61C540.567 171.839 539.114 175.306 537.106 179.199C534.535 184.193 520.07 201.619 512.074 204.12" fill="#F9A989"/>
<path d="M515.52 156.965C514.99 157.03 514.465 157.073 513.961 157.093C511.728 157.179 509.466 157.327 507.279 157.469C504.697 157.637 502.025 157.812 499.406 157.886C496.684 157.961 493.956 158.251 491.319 158.532C488.601 158.821 485.791 159.121 483.023 159.178C481.453 159.209 479.938 159.091 478.665 158.972L478.29 160.401C479.851 161.041 481.329 161.926 482.758 162.781C484.305 163.71 485.907 164.669 487.666 165.358C492.029 167.067 502.934 165.765 507.04 165.274C507.522 165.217 507.984 165.161 508.249 165.134L508.267 165.148L508.566 165.119C508.941 165.081 509.321 165.04 509.701 164.993C510.561 164.887 511.333 164.766 512.062 164.623L512.108 164.614L512.152 164.599C515.108 163.646 517.368 162.23 519.264 160.14L519.325 160.074L519.488 159.774C520 158.835 520.528 157.864 521.201 157.077L522.837 155.162L520.379 155.89C518.496 156.447 516.952 156.788 515.52 156.965" fill="white"/>
<path d="M473.469 106.135C470.887 106.304 468.217 106.479 465.596 106.552C462.875 106.627 460.148 106.917 457.51 107.198C454.792 107.488 450.51 112.384 451.323 112.826C452.137 113.268 452.978 113.68 453.858 114.025C458.219 115.733 466.922 115.988 476.285 112.803C477.524 112.381 475.657 105.993 473.469 106.135Z" fill="white"/>
<path d="M528.308 104.176C527.536 104.181 526.765 104.179 525.999 104.169C523.274 104.131 520.538 104.31 517.89 104.482C515.161 104.659 510.667 109.373 511.461 109.851C512.254 110.324 513.075 110.772 513.94 111.151C518.223 113.038 526.906 113.651 536.4 110.854C537.658 110.484 530.177 104.166 528.308 104.176" fill="white"/>
<path d="M464.899 84.3233C465.002 84.3268 465.112 84.3209 465.232 84.3046L466.936 84.074C474.931 82.9905 483.198 81.8705 491.372 81.685C494.483 81.6154 497.618 81.1474 500.649 80.6932C504.244 80.1548 507.963 79.6003 511.611 79.722C512.916 79.7671 514.127 79.8901 515.313 80.101C515.388 80.1146 515.462 80.1222 515.535 80.1245C516.686 80.1631 517.687 78.9425 517.812 77.8249C517.907 76.9837 517.47 76.3722 516.674 76.2303C515.341 75.9931 513.977 75.8541 512.503 75.8041C508.475 75.6686 504.391 76.2589 500.442 76.8305C497.96 77.1883 495.393 77.5601 492.894 77.7398C481.932 78.5285 473.526 79.3525 465.637 80.417C464.474 80.5737 463.609 82.0073 463.668 83.0893C463.708 83.8262 464.18 84.298 464.899 84.3233" fill="#100D0B"/>
<path d="M465.742 163.285C464.939 161.109 464.721 158.864 466.027 156.7C467.313 154.572 469.58 153.013 471.503 151.462C474.857 148.755 478.012 145.568 478.039 141.294C478.403 139.956 478.492 138.538 478.205 137.019C478.202 137.007 478.204 136.993 478.203 136.983L478.198 136.984C478.176 136.868 478.165 136.758 478.139 136.641C477.751 134.941 475.413 136.927 475.519 138.081C475.606 139.038 475.282 139.986 474.758 140.89C474.411 141.418 474.051 141.924 473.679 142.414C472.823 143.454 471.831 144.4 471.085 145.193C470.917 145.371 470.744 145.546 470.575 145.725C468.851 147.188 466.855 148.353 464.472 149.149C459.781 150.719 454.401 150.477 449.521 150.362C448.323 150.334 446.617 152.414 448.029 153.243C450.262 154.55 453.208 154.618 454.106 157.176C454.164 157.34 454.221 157.504 454.275 157.667C454.21 162.69 457.116 168.091 460.075 171.815C461.139 173.158 463.137 170.665 462.333 169.468C459.568 165.355 458.643 160.824 457.043 156.362C457.155 154.488 457.786 152.752 459.47 154.625C460.115 155.339 461.204 165.47 464.428 167.512C464.769 167.729 465.147 167.695 465.495 167.522C466.658 167.65 467.99 165.742 467.122 164.864C466.623 164.361 466.153 163.83 465.742 163.285" fill="#100D0B"/>
<path d="M514.726 171.882C510.763 173.507 506.506 174.723 502.236 175.239C494.441 175.825 486.414 174.247 480.54 169.402C479.353 168.421 477.575 171.142 478.749 172.171C479.812 173.099 480.924 173.908 482.074 174.617C489.157 180.546 501.044 179.987 510.066 176.791C511.525 176.4 512.945 175.944 514.303 175.435C514.712 175.28 515.031 174.916 515.235 174.498C516.376 173.843 516.495 171.157 514.726 171.882Z" fill="#100D0B"/>
<path d="M448.186 121.702C448.656 120.88 449.155 120.17 449.806 119.621C451.015 119.218 452.369 119.33 453.761 119.684C453.87 120.057 455.231 120.986 455.656 121.216C461.175 124.211 469.534 123.671 474.975 120.736C475.876 120.251 477.127 117.564 475.165 117.83C469.559 118.585 463.647 119.849 458.182 117.957C456.505 117.376 454.9 116.771 453.323 116.521C453.366 115.918 453.099 115.466 452.334 115.64C452.108 115.694 451.89 115.758 451.682 115.828C450.84 116.083 450.08 116.435 449.401 116.886C448.877 117.097 448.354 117.375 447.826 117.755C447.467 118.014 447.203 118.563 447.097 119.107C446.772 119.54 446.463 119.996 446.181 120.491C445.182 122.244 447.17 123.487 448.186 121.702" fill="#100D0B"/>
<path d="M478.572 72.8184C489.078 71.4759 499.704 71.8574 510.254 72.4431C511.762 72.528 513.105 69.5442 511.448 69.4528C500.686 68.854 489.825 68.448 479.106 69.8163C477.641 70.0033 476.702 73.058 478.572 72.8184" fill="#100D0B"/>
<path d="M445.591 101.628C446.332 101.356 448.141 101.594 448.937 101.176C453.261 98.9133 457.731 97.4005 462.588 97.1983C463.413 97.5547 464.242 97.8887 465.099 98.1538C468.134 99.1045 470.957 100.703 473.838 102.125C473.843 102.127 473.848 102.131 473.852 102.134C476.592 103.907 479.367 105.704 482.418 106.941C487.952 109.181 491.01 105.676 490.619 100.351C490.476 98.3831 488.205 99.9272 487.961 101.076C487.834 101.674 487.686 102.23 487.5 102.766C486.931 102.399 486.418 102.292 485.857 102.344C487.566 95.2627 480.089 93.6777 473.659 93.3743C469.101 93.1599 464.59 92.6788 460.041 92.4126C459.875 92.4007 459.713 92.4002 459.549 92.3936C458.439 92.0381 457.311 91.8648 456.19 92.117C455.036 92.3732 454.016 92.9453 453.084 93.6728C453.066 93.6822 453.05 93.6898 453.035 93.6949C450.224 95.0951 448.46 97.7035 445.439 98.8139C444.02 99.3358 443.642 102.344 445.591 101.628" fill="#100D0B"/>
<path d="M445.875 114.099C445.72 113.975 445.517 113.923 445.271 113.958L445.267 113.956C445.01 113.954 444.63 113.723 444.329 113.54C444.748 112.708 444.799 111.478 443.554 111.55C443.157 111.575 442.774 111.518 442.393 111.43C442.4 110.862 442.109 110.428 441.358 110.529C440.688 110.62 440.021 110.709 439.351 110.8C437.922 110.992 436.886 113.912 438.817 113.801C439.256 113.776 439.679 113.849 440.102 113.954C439.911 114.571 440.046 115.203 440.775 115.466C441.102 115.584 441.418 115.732 441.731 115.89C441.21 116.184 440.687 116.485 440.183 116.81C439.387 117.327 438.623 119.863 440.332 119.532C442.3 119.151 443.821 117.765 445.414 116.68C445.69 116.501 445.893 116.248 446.033 115.965C446.406 115.289 446.48 114.428 445.875 114.099" fill="#100D0B"/>
<path d="M558.231 106.143C556.324 105.13 554.436 105.427 553.523 107.469C553.189 108.215 552.919 108.989 552.701 109.777C552.509 112.049 552.328 114.32 552.118 116.59C552 117.889 549.632 119.125 549.447 117.266C549.392 116.733 549.361 116.184 549.353 115.623C549.613 117.397 551.909 116.136 552.003 114.849C552.165 112.576 552.304 110.3 552.451 108.026C552.654 107.233 552.909 106.455 553.227 105.705C554.102 103.646 555.984 103.314 557.909 104.292C559.416 105.058 559.696 107 559.794 108.481C559.567 107.52 559.128 106.619 558.231 106.143V106.143ZM546.735 105.769C545.802 107.176 544.868 108.622 544.92 109.97C544.47 108.091 544.515 106.213 545.783 104.223C549.05 99.081 544.022 81.1071 543.079 74.5528C542.481 70.3867 542.43 65.2917 540.085 61.6256C539.707 61.0362 539.291 60.4611 538.856 59.8971C539.733 60.943 540.543 62.0308 541.237 63.1624C543.509 66.8694 544.406 71.836 544.922 76.0126C545.738 82.5831 550.102 100.688 546.735 105.769V105.769ZM545.854 136.997C545.682 137.51 545.474 138.229 545.253 138.992C544.853 140.37 544.402 141.934 544.01 142.807C543.109 144.821 542.682 148.418 542.187 152.584C541.392 159.287 540.402 167.63 537.023 173.912C534.3 178.976 529.556 184.207 526.443 186.959C527.491 183.647 528.072 179.762 528.211 175.142C528.241 174.153 527.678 173.784 527.142 173.764C526.649 173.747 526.046 174.018 525.527 174.489C524.956 175.006 524.62 175.636 524.602 176.213C524.425 182.07 523.511 189.446 517.977 194.53C514.039 198.143 508.246 199.528 502.649 200.637C499.631 201.233 496.557 201.485 493.512 201.382C485.631 201.118 479.17 198.531 475.31 194.1C475.228 193.957 475.115 193.825 474.973 193.708C472.947 191.226 471.704 188.212 471.282 184.748C471.183 183.94 470.714 183.444 470.026 183.421C469.473 183.403 468.848 183.701 468.351 184.222C467.853 184.745 467.608 185.376 467.679 185.949C467.838 187.268 468.106 188.554 468.475 189.782C463.403 186.761 459.149 184.089 455.22 180.699C455.025 180.532 454.609 179.814 454.547 179.579L454.563 179.463L454.47 179.324C453.135 177.321 452.226 175.243 451.264 173.044C450.9 172.212 450.532 171.374 450.14 170.534C447.615 165.143 441.085 151.784 440.692 151.078L440.634 150.976C440.404 150.399 439.538 147.604 438.699 144.895C437.948 142.474 437.098 139.729 436.473 137.82C436.134 136.788 435.766 135.756 435.411 134.757C434.903 133.327 434.41 131.936 433.986 130.535C433.479 128.342 433.053 126.152 432.798 124.23C432.617 122.868 432.69 120.375 432.717 119.621C433.2 117.191 435.399 111.431 435.11 111.193C435.686 103.246 437.38 94.7254 441.976 87.9886C443.895 85.1749 445.169 82.1135 445.902 78.8261C446.741 75.0564 446.535 71.1202 447.939 67.467C449.316 63.8852 453.103 63.5664 456.306 62.5535C458.892 61.7375 460.583 58.9158 461.277 56.5444C462.696 51.6861 460.258 46.1865 458.037 41.9232C455.741 37.5235 452.749 33.3547 449.076 29.8966C457.876 34.2881 462.541 45.1915 464.067 54.5571C464.194 55.3302 464.661 55.5538 465.171 55.4606C465.428 55.5147 465.756 55.4484 466.158 55.1839C475.176 49.2638 487.147 54.6936 496.694 56.3676C499.097 56.788 501.509 57.1272 503.941 57.3473C505.949 57.5325 508.735 57.3511 510.774 57.2072C519.089 56.621 525.634 52.4559 529.654 55.751C532.551 58.1269 532.489 61.3034 534.586 64.3726C535.771 66.1068 536.032 71.2174 536.386 73.2305C536.934 76.364 541.747 88.5255 542.832 93.0694C542.824 93.1679 542.823 93.2664 542.836 93.3651C542.9 93.8039 543.496 94.1679 543.55 94.592C542.832 94.2123 542.029 93.7929 541.173 93.386C541.075 93.3048 540.963 93.2286 540.82 93.1806C540.661 93.1239 540.504 93.0646 540.349 93.0062C539.693 92.7135 539.02 92.4361 538.336 92.1994C534.813 90.7162 531.307 89.107 527.433 90.5256C524.585 91.5719 521.773 93.1752 519.253 95.0231C517.032 95.1784 514.765 95.1569 512.436 95.0371C511.902 95.01 509.515 96.4372 509.097 96.839C508.766 96.8093 508.373 96.9434 507.953 97.3261C499.699 104.824 501.32 116.005 504.192 125.528C505.577 130.125 508.328 135.192 507.758 140.081C507.269 144.27 501.822 144.089 498.963 143.186C496.42 142.384 493.813 140.19 491.114 140.733C491.031 140.752 487.496 141.151 485.683 143.509C485.474 143.781 485.305 144.317 485.344 144.775C481.365 143.726 482.285 139.576 483.516 136.345C483.809 135.659 484.113 134.972 484.38 134.256C485.145 132.212 482.142 132.251 481.432 133.887C481.151 134.537 480.316 135.321 480.038 136.081C479.13 138.286 478.84 140.345 479.077 142.869C479.114 143.261 481.613 147.204 484.365 147.824C485.227 148.017 489.934 147.108 490.045 147.105C491.059 147.084 491.999 145.263 491.551 144.47C492.17 144.871 492.736 145.146 493.544 145.265C493.606 145.273 493.669 145.274 493.73 145.27C495.943 146.377 498.108 147.843 499.161 148.308C499.543 148.477 505.786 150.364 509.035 144.96C509.066 144.911 509.101 144.864 509.133 144.816C510.184 143.869 511.464 143.343 513.372 143.293C514.559 143.263 515.223 140.418 515.097 140.199C515.975 136.91 513.209 132.086 512.218 129.465C510.111 123.868 506.334 118.117 505.305 112.215C505.188 111.536 504.807 111.285 504.367 111.298C504.321 107.548 505.233 103.976 507.86 100.85C508.106 101.047 508.461 101.114 508.805 101.019C509.2 102.355 509.416 103.735 509.618 105.115C509.731 105.889 510.207 106.11 510.723 106.014C510.429 107.091 510.296 107.863 509.743 108.966C508.767 110.91 511.359 110.984 512.152 109.399C512.621 108.463 513.296 107.805 513.815 106.973C514.243 106.922 514.676 106.875 515.116 106.827C514.956 107.614 515.483 110.143 516.132 110.384C515.557 110.333 515.04 110.785 514.894 110.916C514.293 111.789 514.333 112.595 515.41 112.633C520.058 112.804 524.66 113.435 529.262 114.059C530.763 114.26 532.137 111.295 530.455 111.067C529.702 110.966 528.949 110.863 528.195 110.763C528.328 110.296 528.278 109.862 527.957 109.64C528.065 109.573 528.173 109.505 528.278 109.438C528.797 109.104 529.128 108.306 529.122 107.655C531.442 108.433 533.544 109.661 535.232 111.538C536.375 112.808 538.409 110.343 537.492 109.193C533.952 104.748 524.154 100.499 518.266 103.077C516.585 103.185 515 103.883 513.42 104.087C513.157 104.121 512.718 104.265 512.275 104.462C512.544 103.689 512.813 102.917 513.082 102.144C517.9 102.532 523.084 100.294 527.785 99.236C528.335 99.144 528.886 99.0381 529.439 98.9176C529.494 98.9043 530.082 98.9163 530.45 98.7319C531.108 98.4022 531.73 98.0558 532.322 97.6823C535.494 96.3475 539.213 97.3284 542.584 97.7503C542.99 97.7996 543.433 97.5874 543.801 97.2552C543.965 100.115 543.728 102.814 542.718 105.829C541.564 109.264 542.82 112.803 544.015 116.03C544.508 117.364 544.99 118.834 545.423 120.373C546.582 125.017 547.561 131.901 545.854 136.997V136.997ZM433.734 150.869C433.62 151.025 433.496 151.172 433.352 151.297C432.772 151.8 432.199 151.836 430.73 151.787C429.588 151.75 428.487 151.481 428.069 151.366C425.899 150.773 424.201 148.928 422.963 147.387C419.231 142.748 417.499 136.794 415.823 131.038C415.12 128.622 414.394 126.124 413.533 123.793L413.298 123.159C412.367 121.28 411.65 119.631 411.098 118.176C410.632 116.611 410.217 114.947 409.997 113.365C410.171 113.522 410.428 113.617 410.799 113.607C411.717 113.585 412.622 113.673 413.534 113.725C412.829 116.847 412.112 119.819 414.91 122.233C415.923 123.108 416.907 123.154 417.78 122.762C417.722 123.161 417.648 123.558 417.551 123.951C417.015 126.108 419.893 125.164 420.283 123.588C420.676 122.017 420.688 120.393 420.883 118.791C421.462 120.361 421.959 122.093 422.394 123.87C421.84 124.111 421.284 124.47 420.739 124.991C415.8 129.723 415.904 143.182 425.465 138.631C425.682 138.765 425.904 138.893 426.135 139.015C426.144 139.019 426.152 139.021 426.162 139.024C424.91 139.122 423.527 141.485 424.867 142.024C426.04 142.498 427.245 142.807 428.373 143.202C429.807 143.865 431.234 144.782 432.284 145.901C432.325 145.961 432.589 146.303 432.693 146.371C433.731 147.666 434.246 149.19 433.734 150.869V150.869ZM420.262 117.247C419.525 117.176 418.422 117.962 418.181 118.896C416.73 119.875 415.875 119.359 415.612 117.35C415.607 116.615 415.687 115.89 415.849 115.176C416.009 114.272 416.255 113.383 416.457 112.487C418.013 113.212 419.251 114.964 420.262 117.247V117.247ZM422.304 135.29C422.502 135.674 422.74 136.047 423.007 136.402C421.491 136.525 420.377 135.756 420.192 133.543C420.011 131.368 420.721 128.018 422.657 126.642C422.767 126.561 422.879 126.514 422.995 126.487C423.072 126.839 423.145 127.192 423.219 127.542C422.906 127.671 422.603 127.894 422.366 128.213C420.313 130.991 420.907 133.104 422.304 135.29V135.29ZM410.566 107.787C410.709 107.628 410.835 107.514 410.921 107.43C411.584 106.778 413.108 106.402 414.385 106.446C414.799 106.459 415.249 106.511 415.724 106.596C418.783 107.15 420.908 110.333 422.784 113.141C423.343 113.977 423.871 114.768 424.399 115.452C427.801 119.857 429.529 127.655 430.456 131.844C430.725 133.052 430.917 133.925 431.079 134.405C431.462 135.543 431.858 136.749 432.332 138.226C432.302 138.215 432.366 138.417 432.483 138.769C431.984 138.564 431.395 138.407 430.688 138.275C426.432 137.483 429.629 130.546 428.801 127.884C428.169 125.851 426.843 124.298 425.258 123.745C423.14 114.315 419.716 104.657 410.646 110.782C410.313 111.009 410.017 111.435 409.85 111.889C409.762 110.284 409.946 108.844 410.566 107.787V107.787ZM415.591 85.3385C413.047 75.9018 417.694 65.5734 419.378 56.2886C420.16 51.9728 419.953 47.5897 420.634 43.299C421.254 39.37 423.386 35.6799 426.095 32.7512C430.211 28.296 436.252 26.8306 441.549 28.8842C436.622 27.5825 431.275 29.1568 427.524 33.2158C424.818 36.1471 422.686 39.8373 422.064 43.7662C421.385 48.0578 421.591 52.44 420.809 56.7532C419.126 66.0389 414.48 76.369 417.023 85.8032C418.276 90.4444 420.54 94.6251 422.253 99.0966C423.746 102.995 425.348 106.888 427.552 110.47C428.699 112.333 429.924 114.15 431.261 115.888C431.17 116.159 431.07 116.432 430.989 116.703C430.537 116.223 430.106 115.785 429.848 115.45C428.503 113.701 427.271 111.876 426.121 110.003C423.915 106.421 422.315 102.529 420.821 98.632C419.107 94.1596 416.843 89.9789 415.591 85.3385V85.3385ZM453.594 15.4546C460.657 11.2888 469.391 10.2178 477.486 9.60371C493.766 8.37034 510.762 10.3039 526.115 15.7598C532.553 18.0456 539.35 21.2915 544.476 25.9345C539.704 22.0372 533.841 19.4746 528.203 17.354C512.956 11.6224 496.044 9.68616 479.745 10.6254C471.638 11.0907 462.884 12.0059 455.742 16.0405C451.433 18.4771 448.899 20.4528 445.725 24.0241C448.476 24.2729 450.301 25.7161 452.727 27.0859C455.812 28.8237 459.702 31.6181 461.486 34.7087C464.419 39.7804 466.569 45.6545 467.674 51.4452C467.275 51.631 466.879 51.8281 466.484 52.0486C465.315 46.0179 462.969 39.8724 459.799 34.6213C457.955 31.5622 454.012 28.8409 450.895 27.1564C448.442 25.8348 445.75 25.1724 442.995 24.9746C446.097 21.3448 449.332 17.9686 453.594 15.4546V15.4546ZM559.701 101.525C557.308 99.8455 554.693 100.707 552.848 102.405C552.894 101.839 552.933 101.275 552.98 100.711C553.422 95.6075 554.535 90.6636 555.303 85.6137C555.885 81.7683 556.503 77.9465 556.534 74.0513C556.573 69.6383 555.138 65.5824 554.183 61.3294C552.459 53.6556 554.502 45.7554 553.922 38.0138C553.361 30.5421 549.677 24.9278 543.581 20.591C530.93 11.5839 513.633 7.05419 498.277 5.71591C483.86 4.46018 465.217 5.0401 452.321 12.2292C446.765 15.3276 442.378 20.0968 439.961 24.9351C436.979 24.5002 433.85 24.9726 430.88 26.2391C424.745 28.8457 419.418 35.1283 417.483 41.1232C416.314 44.7483 416.624 48.5116 416.228 52.2532C415.707 57.1712 414.541 62.017 413.409 66.8293C411.976 72.9306 410.188 79.0349 411.429 85.3221C412.643 91.482 415.523 97.3019 418.027 103.085C417.902 103.014 417.785 102.93 417.657 102.862C416.942 102.659 416.217 102.537 415.489 102.512C414.872 102.49 414.241 102.534 413.614 102.64C410.928 103.099 408.98 104.31 407.823 106.242C404.641 111.55 408.2 121.099 410.114 126.231L410.433 127.091C411.14 129.006 411.774 131.228 412.445 133.582C414.909 142.225 417.974 152.981 427.22 155.505C428.816 155.94 429.926 156.139 430.932 156.174C432.876 156.238 434.583 155.654 436.709 154.175C437.8 157.337 442.666 170.419 444.913 174.704C446.279 177.308 447.863 179.659 450.05 182.328C451.194 183.723 454.891 187.22 457.591 189.775C459.097 191.2 460.399 192.431 460.639 192.714L460.658 192.738L460.68 192.758C464.093 195.843 465.651 196.713 468.481 198.293C469.743 198.996 471.31 199.872 473.414 201.164C476.574 204.774 482.46 206.676 491.402 206.978L491.405 206.977C496.783 207.158 502.337 206.754 507.235 206.396C508.522 206.303 511.644 204.865 512.702 204.427C522.088 200.536 536.027 185.259 538.741 179.987C540.817 175.962 542.317 172.373 543.327 169.014L543.336 168.983L543.341 168.949C543.519 167.665 545.494 157.26 545.505 157.21L545.495 157.207C545.526 157.115 545.545 157.01 545.567 156.901C546.928 149.916 548.203 144.957 549.065 143.297C549.134 143.163 549.175 142.793 549.191 142.241C550.443 140.679 551.619 141.968 553.831 140.321C557.759 137.399 560.096 121.301 560.333 120.127C561.394 114.805 565.384 105.515 559.701 101.525" fill="#100D0B"/>
<path d="M536.704 140.263C534.831 141.968 531.126 140.952 528.631 140.134C523.822 139.099 519.056 134.301 518.514 133.52C517.562 132.158 515.404 134.651 516.252 135.865C516.732 136.552 518.996 139.131 519.45 139.456C522.932 142.617 527.243 144.754 531.349 147.209C533.6 151.311 533.833 156.153 533.487 160.87C533.324 163.078 535.751 162.003 536.122 160.521C537.504 155.001 536.694 149.27 537.309 143.671C537.631 143.045 538 142.43 538.436 141.821C539.448 140.407 538.054 139.032 536.704 140.263" fill="#100D0B"/>
<path d="M518.684 159.648C516.765 161.762 514.53 163.047 511.909 163.892C510.784 164.113 509.62 164.265 508.487 164.377C508.316 164.254 493.107 166.685 487.957 164.668C484.638 163.368 481.902 161.072 478.59 159.713C480.067 159.852 481.545 159.953 483.04 159.923C488.528 159.81 493.93 158.783 499.428 158.63C504.284 158.495 509.134 158.026 513.992 157.838C516.244 157.749 518.441 157.243 520.605 156.602C519.827 157.512 519.258 158.598 518.684 159.648ZM526.817 151.784C522.31 153.092 518.057 154.696 513.295 154.883C508.47 155.07 503.657 155.526 498.831 155.661C493.438 155.811 488.098 157.025 482.706 156.898C478.508 156.797 474.439 155.939 470.249 156.163C470.003 156.074 469.736 156.099 469.479 156.211C469.368 156.221 469.258 156.221 469.147 156.232C467.674 156.382 466.727 159.426 468.613 159.235C468.669 159.229 468.725 159.226 468.781 159.221C478.258 170.112 494.172 173.851 507.486 169.807C507.992 169.74 519.912 166.663 525.303 156.398C526.563 155.748 527.345 155.096 528.096 153.408C528.535 152.425 527.936 151.456 526.817 151.784" fill="#100D0B"/>
<path d="M494.727 100.454C494.447 98.4549 490.758 100.224 490.964 101.687C492.017 109.174 493.658 116.636 496.64 123.701C497.358 125.409 498.678 123.386 498.119 122.059C495.211 115.167 495.754 107.758 494.727 100.454" fill="#100D0B"/>
<path d="M532.362 118.778C533.359 118.071 533.595 115.214 531.874 116.149C531.067 116.585 530.26 116.914 529.453 117.169C529.317 117.138 529.159 117.126 528.965 117.153C527.1 117.405 525.211 117.655 523.32 117.786C521.537 117.647 519.738 117.305 517.913 116.909C516.869 116.556 515.822 116.176 514.773 115.825C513.612 115.432 512.576 117.329 512.898 118.209C512.951 118.356 514.124 120.201 514.302 120.247C518.451 123.858 528.748 121.347 532.362 118.778" fill="#100D0B"/>
<path d="M483.46 109.657C482.115 108.953 480.909 108.083 479.69 107.199C478.64 106.437 476.984 104.797 475.624 104.629C472.35 104.225 469.026 104.368 465.759 104.548C461.581 104.779 453.798 106.378 449.831 112.743C449.08 113.948 449.829 115.404 451.248 114.574C452.711 113.714 453.634 112.59 454.553 111.33C454.577 111.524 454.643 111.709 454.776 111.861C455.232 112.378 455.76 112.795 456.339 113.133C456.133 113.767 456.253 114.398 457.022 114.589C458.618 114.982 460.266 115.015 461.893 115.249C462.335 115.312 465.631 115.028 466.646 115.139C467.513 115.231 468.051 114.027 468.38 113.339C469.435 111.137 469.337 109.651 468.549 108.696C469.968 108.712 471.355 108.901 472.624 109.365C472.72 115.136 478.088 112.605 482.295 112.541C483.405 112.524 484.674 110.293 483.46 109.657" fill="#100D0B"/>
<path d="M607.813 372.26L0.382629 375.672L0.624068 348.005L608.009 349.761L607.813 372.26Z" fill="#100D0B"/>
</svg>
