<svg width="170" height="364" viewBox="0 0 170 364" fill="none" xmlns="http://www.w3.org/2000/svg">
<rect x="60" y="245" width="8" height="114" fill="black"/>
<rect x="77" y="245" width="8" height="114" fill="black"/>
<path d="M115.931 255.171C118.707 276.252 116.771 293.892 111.609 294.572C106.447 295.252 113.514 276.935 110.738 255.854C107.963 234.773 96.396 218.91 101.558 218.231C106.721 217.551 113.156 234.09 115.931 255.171Z" fill="#EA3F72"/>
<path d="M28.6748 258.253C31.0818 237.127 37.2271 220.478 42.4006 221.068C47.5741 221.657 36.286 237.72 33.8789 258.846C31.4719 279.972 38.8575 298.162 33.6839 297.573C28.5104 296.983 26.2677 279.379 28.6748 258.253Z" fill="#EA3F72"/>
<path d="M35.2529 292.62C36.1233 294.948 35.7805 297.227 34.4872 297.711C33.1939 298.194 31.672 298.747 30.8017 296.42C29.9313 294.092 28 288.926 30.81 287.876C32.1033 287.392 34.3826 290.292 35.2529 292.62Z" fill="#F2627C"/>
<path d="M115 115.5C115 138.972 92.9868 158 72 158C51.0132 158 29 138.972 29 115.5C29 92.0279 51.0132 90 72 90C92.9868 90 115 92.0279 115 115.5Z" fill="#F2627C"/>
<rect x="49" y="144" width="47" height="47" rx="5" fill="#F2627C"/>
<ellipse cx="72" cy="209.5" rx="38" ry="42.5" fill="#EA3F72"/>
<path d="M110 209.5C110 232.972 92.9868 197 72 197C51.0132 197 34 232.972 34 209.5C34 186.028 51.0132 167 72 167C92.9868 167 110 186.028 110 209.5Z" fill="#F2627C"/>
<path d="M32 62C32 60.3431 33.3431 59 35 59H110C111.657 59 113 60.3431 113 62V98.4794C113 99.9367 111.953 101.183 110.517 101.435L73.5108 107.911C73.1728 107.97 72.8271 107.97 72.4888 107.913L34.4951 101.426C33.0539 101.18 32 99.9308 32 98.4688V62Z" fill="#201F1F"/>
<path d="M70.0242 21.6387C71.1894 21.013 72.5885 21.0036 73.7619 21.6136L133.199 52.5138C136.292 54.1222 135.991 58.643 132.71 59.8257L73.1533 81.3001C72.3314 81.5964 71.435 81.6155 70.6012 81.3544L9.075 62.0877C5.6943 61.0291 5.25681 56.4227 8.37777 54.7466L70.0242 21.6387Z" fill="black"/>
<path d="M163.433 65.8314C163.484 67.7637 192.569 50.3768 118.731 52.3103C44.8918 54.2438 70.4836 54.2426 70.433 52.3103C70.3824 50.378 44.8918 47.2439 118.731 45.3103C192.569 43.3768 163.382 63.8991 163.433 65.8314Z" fill="#F0CF1F"/>
<path d="M162.549 70.9132C162.849 69.9935 164.151 69.9935 164.451 70.9132L168.702 83.9398C168.913 84.5861 168.431 85.25 167.751 85.25H159.249C158.569 85.25 158.087 84.5861 158.298 83.9398L162.549 70.9132Z" fill="#F0CF1F"/>
<rect x="161" y="67" width="5" height="5" rx="1" fill="#6B6969"/>
<circle cx="163.5" cy="65.5" r="3.5" fill="#F0CF1F"/>
<rect x="77" y="359" width="13" height="5" fill="#5323DD"/>
<rect x="55" y="359" width="13" height="5" fill="#5323DD"/>
<ellipse cx="66" cy="121.5" rx="9" ry="8.5" fill="white"/>
<ellipse cx="81" cy="121.5" rx="9" ry="8.5" fill="white"/>
<path d="M100.323 133.008C101.251 134.695 101.225 136.446 100.246 138.128C99.2667 139.811 97.3603 141.383 94.6682 142.727C91.976 144.072 88.5675 145.154 84.6959 145.894C80.8244 146.634 76.5894 147.012 72.3059 147C68.0225 146.988 63.8007 146.587 59.9544 145.826C56.1082 145.065 52.7365 143.964 50.09 142.605C47.4435 141.246 45.5903 139.664 44.6682 137.976C43.7461 136.288 43.7788 134.538 44.7638 132.855L46.5837 133.029C45.6633 134.601 45.6327 136.236 46.4943 137.813C47.3559 139.39 49.0875 140.869 51.5604 142.139C54.0332 143.409 57.1837 144.437 60.7776 145.148C64.3714 145.859 68.3162 146.234 72.3187 146.245C76.3211 146.256 80.2782 145.903 83.8957 145.212C87.5132 144.521 90.6981 143.509 93.2136 142.253C95.7291 140.997 97.5104 139.528 98.4252 137.956C99.34 136.384 99.3646 134.748 98.4973 133.172L100.323 133.008Z" fill="black"/>
<path d="M115 290.5C115 292.985 113.881 295 112.5 295C111.119 295 109.5 294.985 109.5 292.5C109.5 290.015 109.5 284.5 112.5 284.5C113.881 284.5 115 288.015 115 290.5Z" fill="#F2627C"/>
</svg>
